<svg width="251" height="125" viewBox="0 0 251 300" fill="none" xmlns="http://www.w3.org/2000/svg">
<path d="M121.761 103.837C114.896 92.3153 108.557 81.6492 104.489 71.4071C103.14 67.2535 102.08 63.1633 101.425 59.2437C99.1185 48.0244 100.082 41.4349 104.368 32.3543C104.458 32.1644 104.555 31.9689 104.654 31.7735C106.693 30.6092 109.504 29.5247 112.724 29.2082C119.9 28.5008 132.085 30.3202 136.745 43.4277C141.661 57.2756 131.166 84.2751 121.761 103.837ZM166.079 25.7455C165.611 24.8454 163.874 21.5892 163.277 20.4744C163.164 20.268 163.09 20.1331 163.073 20.1028C155.493 6.1833 155.237 8.82022 150.505 7.98345C150.329 7.95318 150.148 7.90639 149.971 7.86235C144.582 6.62096 135.32 3.11149 130.795 1.44896C126.118 -0.263109 113.811 3.41977 105.868 4.20148C103.847 4.39691 102.281 4.76851 101.031 5.25571C97.3789 6.67326 96.4705 9.0817 94.9622 11.0553C94.0814 12.2113 93.4648 12.5609 92.6473 12.7536C92.6308 12.7563 92.6088 12.7563 92.5977 12.7618C86.4183 14.9776 71.8189 32.9874 74.9733 57.8399C75.199 60.2786 75.711 62.6541 76.3689 64.98C82.4052 88.8306 102.606 120.818 107.566 129.895C103.911 138.307 96.11 155.579 93.6217 171.847C93.5198 172.397 92.917 176.135 92.8785 179.273C92.5482 187.542 94.0979 195.108 98.8928 200.542C98.923 200.575 99.8341 201.552 99.8754 201.596C102.328 204.013 105.218 205.549 108.127 206.471C112.245 208.243 115.378 207.252 118.408 206.738C119.76 207.558 121.174 208.191 122.614 208.684C131.279 211.678 140.973 209.276 145.515 206.738C151.606 204.759 154.384 201.183 156.123 195.64C157.877 190.418 160.56 179.763 154.485 163.994C151.758 157.184 146.269 146.526 137.813 131.035L137.758 130.944C144.538 118.115 162.691 86.3698 165.922 77.0938C166.098 76.6039 166.25 76.1304 166.401 75.657C171.89 61.6136 175.473 43.0368 166.079 25.7455" fill="white"/>
<path d="M116.609 146.855C114.652 143.082 110.369 134.86 109.455 132.906C99.5016 152.3 97.0464 173.838 96.8895 180.098C96.9941 184.909 96.8895 192.206 103.694 195.313C112.722 183.018 96.8895 164.648 116.609 146.855Z" fill="#ACA9A6"/>
<path d="M139.458 82.1763C141.787 70.6129 147.592 60.7534 140.221 44.6814C134.149 31.45 123.697 26.7157 112.72 29.2094H112.723C119.904 28.502 132.093 30.316 136.747 43.429C141.663 57.2769 131.168 84.2764 121.762 103.839C121.548 104.298 121.314 104.758 121.094 105.215C125.665 113.15 129.406 119.979 133.871 128.044C133.871 128.044 139.888 118.333 142.387 113.935C137.262 102.06 138.005 89.3796 139.458 82.1763Z" fill="#ACA9A6"/>
<path d="M167.977 44.4635C167.972 44.0644 167.972 43.657 167.963 43.2744V43.2084C167.961 43.0349 167.952 42.8808 167.952 42.7101C167.889 40.9788 167.768 39.4814 167.603 38.2428C167.427 37.0234 167.215 36.1151 167.019 35.4655C166.15 32.8589 164.063 29.743 161.674 26.7455C157 20.8799 151.165 15.4904 150.983 15.3198C150.614 15.4822 150.237 15.6776 149.846 15.9033C144.862 18.887 144.977 22.9388 127.667 14.6482C125.052 13.3958 120.964 14.1885 118.677 14.3399C136.18 27.3401 155.39 26.784 167.977 44.4635Z" fill="#BCBAB7"/>
<path d="M154.548 93.3936C155.217 92.3834 155.822 91.4448 156.365 90.5915C157.011 89.5318 157.625 88.4473 158.206 87.3491C158.47 86.8509 158.726 86.3471 158.977 85.8407C166.084 71.5358 168.077 54.8445 167.975 44.462C159.068 18.5828 133.098 30.1241 124.779 13.9888C124.642 13.9971 118.413 14.3604 118.281 14.3741C118.688 14.8944 119.109 15.4063 119.552 15.9183C122.85 19.6838 130.573 27.3248 138.881 29.2736C147.193 31.2251 154.163 32.4362 161.176 42.882C168.189 53.3361 160.73 68.0649 154.163 82.5294C151.542 88.2987 151.281 94.0955 150.898 99.818C151.966 98.3426 152.197 96.6251 153.463 94.924C153.832 94.423 154.193 93.9111 154.548 93.3936Z" fill="#CCC9C6"/>
<path d="M161.177 42.8851C154.161 32.4338 147.194 31.2226 138.882 29.2739C130.572 27.3278 122.851 19.6813 119.554 15.9159C119.11 15.4094 118.689 14.8919 118.282 14.3772C112.551 14.936 107.954 19.5272 104.852 26.1002C103.787 28.36 102.895 30.8511 102.193 33.488C104.489 31.5006 108.373 29.6344 112.724 29.2105C123.696 26.714 134.153 31.4483 140.222 44.6852C147.596 60.7517 141.788 70.6168 139.457 82.1746C138.004 89.378 137.263 102.059 142.386 113.933C144.167 110.798 146.091 106.463 150.899 99.821C151.282 94.093 151.541 88.2962 154.161 82.5324C160.731 68.0652 168.188 53.3337 161.177 42.8851Z" fill="#BBB8B5"/>
<path d="M118.681 14.3361C118.544 14.3443 118.412 14.3637 118.277 14.3692C112.546 14.9362 107.955 19.5191 104.847 26.0976C103.785 28.3602 102.89 30.8484 102.194 33.4908C102.885 32.8935 103.708 32.3101 104.649 31.7734C106.694 30.6118 109.505 29.5245 112.725 29.208C119.901 28.5034 132.092 30.32 136.744 43.4247C141.662 57.2754 131.167 84.2749 121.762 103.837C126.328 111.773 129.127 116.804 134.302 125.252C134.302 125.252 156.677 91.137 156.931 90.6306C164.035 76.3257 167.993 58.7812 166.933 44.724C165.243 22.1809 151.164 15.4895 150.982 15.3216C150.613 15.4812 150.234 15.6794 149.846 15.9023C144.863 18.8888 144.734 23.6534 127.423 15.3656C125.571 14.4738 123.102 14.259 121.01 14.259C120.149 14.259 119.348 14.292 118.681 14.3361" fill="url(#paint0_linear_3_17)"/>
<path d="M111.444 130.878C103.695 141.684 91.8017 199.438 109.093 197.415C136.238 193.614 115.041 138.244 111.444 130.878Z" fill="#9A9794"/>
<path d="M118.681 14.3361C118.544 14.3444 118.412 14.3637 118.277 14.3692C112.546 14.9362 107.955 19.5191 104.847 26.0977C103.785 28.3602 102.89 30.8484 102.194 33.4909C102.885 32.8936 103.708 32.3101 104.649 31.7734C106.694 30.6118 109.505 29.5246 112.725 29.208C119.901 28.5034 132.092 30.32 136.744 43.4247C141.662 57.2754 131.167 84.275 121.762 103.837C126.328 111.773 130.261 119.876 134.734 127.938C134.734 127.938 158.728 86.3505 158.976 85.8412C166.085 71.5336 169.138 54.7845 167.979 44.4625C166.796 33.9726 164.745 30.2181 162.169 26.3508C161.269 24.9966 151.164 15.4895 150.982 15.3216C150.613 15.4812 150.234 15.6794 149.846 15.9024C144.863 18.8889 144.734 23.6535 127.423 15.3656C125.571 14.4738 123.102 14.259 121.01 14.259C120.149 14.259 119.348 14.2921 118.681 14.3361" fill="url(#paint1_linear_3_17)"/>
<g opacity="0.279999">
<path d="M129.562 21.3662C122.183 21.4433 116.785 23.8462 116.609 25.561C151.081 26.6896 153.848 50.8072 120.149 111.751C107.371 134.858 102.296 156.102 102.232 170.374V170.911C102.271 179.909 104.344 186.039 107.74 187.968C108.905 188.629 110.151 188.94 111.385 188.959H111.596C116.928 188.885 121.863 183.286 118.403 176.132C114.099 167.236 117.735 148.885 128.747 128.838C139.758 108.784 178.246 53.6561 154.547 31.2588C146.666 23.8105 137.583 21.4405 130.281 21.3662H129.562Z" fill="url(#paint2_linear_3_17)"/>
</g>
<g opacity="0.330002">
<path d="M113.549 24.8229C115.49 24.1925 117.516 23.843 119.542 23.631C121.576 23.4136 123.629 23.3778 125.672 23.5127C129.759 23.7852 133.858 24.7843 137.521 26.7717C141.19 28.737 144.301 31.729 146.544 35.2659C147.65 37.0441 148.559 38.9378 149.313 40.8894C150.007 42.8547 150.601 44.853 151.014 46.9009C152.696 55.1144 151.925 63.6197 150.219 71.7149C148.484 79.8403 145.812 87.7125 142.693 95.3205C139.599 102.948 135.993 110.311 132.33 117.591L126.756 128.439L121.289 139.273C117.772 146.517 114.372 153.812 112.022 161.403C111.427 163.3 110.937 165.215 110.552 167.156C110.139 169.083 109.845 171.04 109.74 173C109.5 176.922 109.935 180.921 111.51 184.654L111.036 184.904C108.746 181.439 107.618 177.208 107.359 173.008C107.075 168.796 107.585 164.58 108.43 160.492C109.242 156.388 110.494 152.413 111.846 148.505C113.197 144.591 114.783 140.781 116.418 137.01C123.024 121.965 130.799 107.677 137.695 93.1213C139.396 89.4714 141.086 85.8243 142.58 82.1057C144.102 78.3953 145.498 74.6381 146.624 70.8093C148.892 63.1793 150.177 55.1364 149.013 47.2587C148.757 45.2934 148.223 43.3666 147.65 41.4701C147.012 39.5957 146.225 37.7735 145.253 36.0504C143.268 32.6318 140.453 29.6921 137.012 27.6635C133.585 25.6211 129.638 24.4761 125.627 24.0494C123.618 23.8375 121.59 23.7907 119.566 23.92C117.546 24.0549 115.523 24.3192 113.563 24.8697L113.549 24.8229Z" fill="#797775"/>
</g>
<g opacity="0.550003">
<path d="M93.1904 175.483C93.1904 187.335 98.6872 194.266 103.069 197.079C104.47 197.979 106.835 198.609 109.342 198.662H110.006C111.029 198.64 112.064 198.521 113.058 198.279C119.813 196.633 124.927 189.857 125.045 177.247V176.339C124.999 171.302 124.176 165.367 122.378 158.5C121.778 156.201 116.983 145.802 116.031 143.961C114.074 140.19 109.571 131.316 108.654 129.361C100.823 147.063 93.3473 169.212 93.1904 175.483" fill="url(#paint3_linear_3_17)"/>
</g>
<g opacity="0.440002">
<path d="M104.847 26.0977C103.785 28.3603 102.896 30.8485 102.194 33.4909C102.879 32.8936 103.71 32.3102 104.652 31.7735C106.694 30.6119 109.505 29.5246 112.72 29.2081C119.901 28.5035 132.086 30.3201 136.746 43.4248C141.662 57.2755 131.167 84.275 121.762 103.837C126.328 111.773 130.556 119.13 135.018 127.193C135.018 127.193 158.728 86.3505 158.976 85.8413C166.085 71.5364 172.736 44.724 161.676 26.7445C157.745 20.3559 152.105 15.5638 151.918 15.3959C151.181 15.506 150.234 15.6795 149.846 15.9024C144.863 18.8889 146.595 21.3138 128.954 13.7554C127.512 13.1361 125.992 12.8608 124.451 12.8608C116.303 12.8608 107.459 20.5707 104.847 26.0977" fill="url(#paint4_linear_3_17)"/>
</g>
<g opacity="0.440002">
<path d="M124.484 14.1161C118.745 14.1573 112.318 18.845 109.926 21.5288C107.146 24.6529 102.896 30.8487 102.194 33.4911C104.489 31.5065 108.371 29.6349 112.72 29.2082C119.901 28.5036 132.086 30.3202 136.746 43.425C141.662 57.2757 131.167 84.2752 121.762 103.837C121.541 104.297 121.316 104.759 121.093 105.214C120.149 106.89 109.045 128.244 108.654 129.362C101.795 149.147 95.1584 169.419 95.0015 175.687C95.0015 186.419 98.8055 198.464 109.474 198.632H109.926C110.914 198.618 111.954 198.502 113.058 198.279C123.209 196.207 125.733 179.623 124.209 171.079C124.209 171.079 120.933 157.195 120.779 156.906C120.779 156.906 140.933 116.494 142.386 113.934C144.159 110.799 158.728 86.3507 158.976 85.8414C166.085 71.5366 168.659 54.8232 167.976 44.4627C167.737 40.8156 164.062 29.7449 161.676 26.7447C156.999 20.879 150.234 15.6796 149.846 15.9026C144.864 18.8891 145.648 21.3526 127.671 14.6474C126.711 14.2896 125.7 14.1243 124.665 14.1161H124.484Z" fill="url(#paint5_linear_3_17)"/>
</g>
<path d="M112.532 27.2704C111.599 27.3668 108.34 28.0026 106.358 28.6605L105.288 30.3008L104.649 31.7735C106.694 30.612 109.505 29.5247 112.725 29.2082C119.901 28.5035 132.092 30.3201 136.744 43.4249C141.662 57.2756 131.167 84.2751 121.762 103.837C121.558 104.264 121.349 104.685 121.145 105.109C122.659 106.381 123.851 107.347 123.851 107.347C124.134 106.879 124.308 106.494 124.561 106.012C134.244 85.8304 143.724 57.2481 138.582 42.7781C136.581 37.1547 133.124 32.9434 128.304 30.2679C128.002 30.1027 126.171 29.2192 125.535 28.977C125.227 28.8504 124.919 28.7348 124.608 28.6247C124.005 28.4155 122.13 27.9034 121.822 27.8346C120.65 27.5648 119.433 27.3721 118.2 27.262C117.28 27.174 116.342 27.1355 115.414 27.1355C114.443 27.1355 113.468 27.1768 112.532 27.2704" fill="url(#paint6_linear_3_17)"/>
<path d="M134.304 125.251C133.55 123.988 133.101 123.294 133.098 123.292C132.815 122.813 132.548 122.359 132.273 121.899C121.835 103.132 110.596 86.7904 104.486 71.4093C103.14 67.2558 102.08 63.1628 101.422 59.2487C99.1184 48.0239 100.082 41.4343 104.368 32.3565C108.488 23.62 120.949 12.7172 127.921 16.0561C142.955 23.2539 144.956 19.7802 148.581 16.824C148.694 16.7387 148.978 16.5295 149.093 16.4222C149.173 16.3616 149.633 16.0643 149.71 16.0093C189.126 46.3063 146.872 104.863 134.304 125.251ZM110.255 196.25C109.217 196.412 108.224 196.44 107.274 196.341C105.702 196.132 104.128 195.515 102.622 194.477C100.514 193.024 98.9478 190.877 98.1413 188.447C95.6943 181.117 96.2063 166.534 109.297 133.512C110.66 136.479 111.942 139.27 112.507 140.415C120.082 155.744 121.901 169.804 121.909 178.199C121.092 188.766 116 195.174 110.255 196.25M166.079 25.7449C165.611 24.8476 163.877 21.5941 163.277 20.4738C163.164 20.2647 163.09 20.1298 163.073 20.0995C155.493 6.18276 155.237 8.82518 150.5 7.98841C150.332 7.95814 150.147 7.90584 149.971 7.86455C144.582 6.62592 135.314 3.11094 130.789 1.45392C126.118 -0.260903 113.811 3.41923 105.868 4.19819C103.842 4.39912 102.281 4.76795 101.031 5.2524C97.3788 6.6727 96.4705 9.08116 94.9621 11.0547C94.0813 12.208 93.4593 12.5631 92.6445 12.7503C92.6307 12.7558 92.6087 12.7558 92.5977 12.764C86.4183 14.9771 71.8189 32.9896 74.9733 57.8366C75.1935 60.2754 75.711 62.6535 76.3661 64.9822C82.4051 88.83 102.606 120.823 107.566 129.895C103.911 138.309 96.1099 155.579 93.6217 171.843C93.5198 172.394 92.917 176.14 92.8785 179.267V179.272C92.5454 187.541 94.0923 195.113 98.8927 200.544C98.923 200.574 99.8341 201.554 99.8781 201.598C102.325 204.009 105.218 205.551 108.13 206.476C112.245 208.246 115.378 207.252 118.403 206.734C119.76 207.56 121.174 208.188 122.617 208.683C131.279 211.681 140.973 209.272 145.515 206.734C151.606 204.758 154.378 201.183 156.123 195.642C157.877 190.423 160.56 179.762 154.488 163.996C151.755 157.183 146.269 146.523 137.813 131.034L137.758 130.944C144.535 118.114 162.688 86.372 165.925 77.0933C166.098 76.6061 166.25 76.1326 166.401 75.662C171.89 61.6158 175.473 43.0335 166.079 25.7449" fill="#EFECE8"/>
<path d="M149.75 100.804C149.18 101.723 147.727 103.898 145.918 106.579C141.41 114.206 137.124 120.674 134.308 125.244C135.225 126.722 137.267 130.05 138.14 131.635C138.027 131.434 137.922 131.239 137.815 131.035L137.757 130.944C138.192 130.124 138.676 129.221 139.199 128.249C139.219 123.091 147.994 104.812 149.75 100.804Z" fill="#DAD7D3"/>
<path d="M130.732 4.86051C127.404 3.07687 123.157 3.22 119.108 3.9274C117.872 4.14485 114.919 4.71187 114.919 4.71187C114.919 4.71187 120.889 6.17897 125.657 7.86351C128.728 9.03884 133.881 11.0289 140.091 7.75341L140.206 7.48642C137.344 7.18089 133.895 6.55606 130.732 4.86051Z" fill="#BBB8B5"/>
<path d="M111.305 6.27128C109.939 6.81352 108.745 7.28965 107.897 7.75758C96.6943 13.97 93.5124 20.1192 92.9812 20.6174C92.6619 22.7808 92.1719 24.4407 91.9297 27.0721C94.0023 28.1401 104.052 26.183 110.732 20.923C111.561 20.2293 112.433 19.566 113.342 18.9357C113.694 18.6632 114.016 18.4979 114.286 18.2943C114.33 18.2777 114.368 18.1925 114.41 18.176C118.23 14.7628 122.725 6.3952 126.928 8.46234C127.264 8.62749 127.597 8.77882 127.922 8.91645C127.426 8.63019 126.928 8.34676 126.424 8.07426C123.413 6.45853 120.226 5.28041 116.763 5.28041C115.021 5.28041 113.204 5.58039 111.305 6.27128Z" fill="url(#paint7_linear_3_17)"/>
<path d="M94.7398 13.2139C94.2415 14.4553 93.8287 15.6526 93.5479 17.1885C93.3525 18.2427 93.1653 19.3933 92.9836 20.6237C100.047 11.8596 107.165 8.11069 107.902 7.76111C108.728 7.35374 110.996 5.79856 112.004 5.46551C104.341 7.54366 100.063 10.6678 95.4857 12.0523C95.282 12.2367 94.8581 12.9221 94.7398 13.2139Z" fill="#F6F2EE"/>
<path d="M132.266 16.2518C120.557 9.68703 114.52 18.0354 114.518 18.0382C114.482 18.0492 114.446 18.1648 114.413 18.1786C110.251 21.9 106.087 27.0857 104.364 32.3568C108.49 23.6175 120.95 12.7148 127.923 16.0564C144.41 23.9479 145.239 19.0291 149.711 16.0096C146.444 17.9831 143.741 22.6817 132.266 16.2518Z" fill="#EBE7E3"/>
<path d="M148.559 16.5908C140.874 19.8058 135.686 13.5052 127.924 8.91954C127.596 8.77641 127.266 8.63052 126.93 8.45987C121.538 5.7734 112.463 20.0177 112.485 20.0067C114.219 18.7295 120.558 9.68749 132.267 16.2523C143.74 22.6822 145.449 19.0296 148.568 16.833C148.724 16.7257 149.713 16.01 149.713 16.01C149.713 16.01 148.716 16.4697 148.568 16.5853L148.559 16.5908Z" fill="#FFFBF7"/>
<path d="M110.732 20.9227C104.046 26.0066 94.002 28.1371 91.9321 27.0746C91.0211 37.1185 88.8356 50.1049 91.0596 64.7787C92.0312 71.1865 93.3304 78.0073 94.4094 84.7565C91.6679 63.1987 91.0871 37.3195 110.732 20.9227Z" fill="#EFECE8"/>
<path d="M101.031 5.25469C97.3789 6.67499 96.4705 9.0807 94.9622 11.0543C94.0758 12.2103 93.4593 12.5654 92.6445 12.7526C93.2033 12.6342 93.8639 12.4773 94.6153 12.2929C96.655 11.7809 98.3835 11.024 100.407 10.1322C102.265 9.31191 104.368 8.38156 107.068 7.28055C108.568 6.66949 111.739 5.51618 113.41 5.06476C115.102 4.60509 119.501 3.85641 119.74 3.80961C119.74 3.80961 121.43 3.59216 121.978 3.50959C121.821 3.5206 103.366 4.57482 101.031 5.25469Z" fill="#EFECE8"/>
<path d="M121.517 3.5382C121.126 3.56572 103.364 4.57579 101.032 5.25567C97.3824 6.67597 96.4714 9.08448 94.963 11.0525C94.0767 12.2113 93.4601 12.5664 92.6481 12.7535C93.2041 12.6352 93.8647 12.4811 94.6107 12.2912C96.653 11.782 98.3844 11.0223 100.407 10.1277C102.263 9.31019 104.368 8.38535 107.071 7.28159C108.566 6.67053 111.737 5.5117 113.405 5.06028C115.103 4.60612 119.331 3.87118 119.738 3.81338C120.3 3.73356 121.431 3.5904 121.979 3.51333C121.822 3.51884 121.668 3.52443 121.517 3.5382" fill="url(#paint8_linear_3_17)"/>
<path d="M148.11 202.219C147.929 202.602 147.786 202.935 147.598 203.265C146.957 204.523 146.261 205.69 145.515 206.736C151.642 204.743 154.383 201.239 156.123 195.638C149.633 202.453 148.11 202.219 148.11 202.219Z" fill="#D2CFCB"/>
<path d="M133.872 204.088C128.992 201.949 125.069 206.144 122.617 208.688C131.282 211.68 140.973 209.274 145.518 206.733C146.258 205.69 146.957 204.526 147.599 203.268C145.036 207.529 138.592 206.158 133.872 204.088Z" fill="#DEDBD7"/>
<path d="M118.873 196.822C121.345 191.955 122.655 183.139 121.909 178.201C121.081 188.735 115.989 195.173 110.258 196.249C109.22 196.414 108.221 196.439 107.277 196.34C105.703 196.131 104.131 195.517 102.62 194.479C102.369 194.306 102.13 194.119 101.893 193.929C97.5192 192.627 93.9988 188.922 92.9638 184.386C92.9556 184.339 92.9363 184.3 92.928 184.256C92.9721 184.994 93.0409 185.729 93.129 186.453L93.1455 186.61C93.4152 188.801 93.8694 190.904 94.5465 192.883C99.3662 201.611 113.236 207.92 118.873 196.822Z" fill="#EBE7E3"/>
<path d="M110.255 196.249C109.218 196.415 108.224 196.439 107.274 196.34C105.706 196.131 104.128 195.517 102.623 194.48C101.469 193.681 100.476 192.679 99.6775 191.529C95.7222 187.433 93.5422 180.128 93.1926 175.168L93.1788 174.986V174.989V174.986V174.994C93.0302 176.31 92.8953 177.854 92.8788 179.272V179.277C92.7577 182.28 92.8871 185.19 93.3275 187.942C93.344 187.992 93.3522 188.044 93.3605 188.102C97.7397 196.428 109.892 204.733 117.982 190.709C115.879 193.811 113.148 195.707 110.255 196.249Z" fill="#F2EFEA"/>
<path d="M163.075 20.1008C155.495 6.18126 155.239 8.82093 150.502 7.98692C144.088 8.33098 136.921 12.8066 127.923 8.92002C140.587 16.5005 151.253 0.147729 163.249 20.4228C163.257 20.4393 163.397 20.7036 163.408 20.7201C163.356 20.6293 163.318 20.5467 163.274 20.4751C163.166 20.2659 163.092 20.1311 163.075 20.1008Z" fill="#E7E4E0"/>
<path d="M149.711 16.0069C149.782 15.9629 149.862 15.9161 149.936 15.8693C152.78 13.9976 158.329 13.0095 163.278 20.4716C156.008 8.16227 149.234 9.29353 142.207 10.4303C137.619 11.1735 132.923 11.914 127.922 8.91647C134.965 13.4554 142.975 20.1853 149.711 16.0069" fill="url(#paint9_linear_3_17)"/>
<path d="M108.131 206.473C111.315 204.483 114.032 201.7 116.193 198.471C110.173 204.004 97.1397 202.209 93.3109 187.838C94.0789 192.697 95.8185 197.059 98.893 200.541C98.9233 200.577 99.8344 201.554 99.8784 201.596C102.325 204.012 105.218 205.548 108.131 206.473Z" fill="#CCC9C6"/>
<path d="M130.792 1.45198C126.118 -0.262846 113.814 3.42278 105.868 4.19899C103.845 4.39718 102.278 4.77152 101.034 5.25321C105.733 4.23203 106.058 5.24771 119.823 3.70905C119.892 3.69804 121.629 3.53013 122.072 3.50536C125.166 3.30442 128.215 3.51362 130.731 4.86235C133.894 6.55516 136.878 7.27081 139.743 7.57909C143.307 7.95894 146.688 7.70021 149.969 7.86536C144.585 6.62397 135.317 3.109 130.792 1.45198Z" fill="#F2EFEA"/>
<path d="M127.179 1.00557C121.384 1.09365 112.232 3.57646 105.868 4.20128C103.843 4.39671 102.279 4.77104 101.032 5.25548C105.783 4.30311 106.262 5.24461 119.827 3.7087C119.89 3.69769 121.632 3.52975 122.067 3.50223C125.166 3.30405 128.211 3.51319 130.729 4.85917C133.892 6.55748 136.878 7.26769 139.741 7.57322C141.891 7.80719 143.969 7.80721 146.006 7.8017C147.346 7.8017 148.665 7.80163 149.972 7.86218C144.58 6.62355 135.315 3.11414 130.795 1.45161C129.992 1.15984 128.976 1.02484 127.79 1.00557H127.179Z" fill="url(#paint10_linear_3_17)"/>
<path d="M139.74 7.5764L139.366 7.76632C134.235 10.5354 129.495 9.24993 126.426 8.0746C126.927 8.34435 127.431 8.62511 127.921 8.92238C136.919 12.8089 144.086 8.32784 150.5 7.98377C150.332 7.95349 150.148 7.9067 149.971 7.86266C146.69 7.69751 143.31 7.959 139.74 7.5764Z" fill="#EBE7E3"/>
<path d="M149.75 164.646C143.923 138.935 131.245 122.194 120.078 108.478C110.598 96.8461 105.442 84.3001 103.07 72.9487C103.304 75.5525 103.518 78.2831 103.695 81.0631C105.855 96.8323 111.735 115.563 129.032 136.758C144.748 156.012 148.076 158.637 149.75 164.646Z" fill="#FFFBF7"/>
<path d="M163.569 21.0184C163.569 21.0239 163.75 21.4396 163.75 21.4396C163.794 21.5387 164.84 24.0077 164.879 24.104C167.799 30.9578 164.78 36.6032 164.202 37.5749C168.416 52.4853 163.998 69.5454 157.155 85.0531C154.174 91.8464 154.284 97.9349 153.42 102.229C153.428 102.207 153.442 102.185 153.45 102.168C159.134 91.6564 164.331 81.6593 165.925 77.0956C166.098 76.6056 166.249 76.1322 166.401 75.6588C171.887 61.6154 175.473 43.0359 166.082 25.7473C165.671 24.9655 164.312 22.4112 163.569 21.0184Z" fill="#EBE7E3"/>
<path d="M149.712 16.0103C153.863 19.2032 156.744 22.9687 159.216 26.7094C158.377 20.7777 156.879 14.89 151.917 15.3937C151.292 15.4625 150.711 15.5754 150.116 15.8231C150.097 15.8286 150.045 15.7488 149.712 16.0103Z" fill="#DEDBD7"/>
<path d="M165.007 23.9777C164.969 23.8814 162.056 19.6562 160.399 17.9689C158.577 15.9954 155.935 14.82 153.623 14.8806C151.492 14.9356 150.655 15.5054 149.995 15.8302C149.89 15.877 149.769 15.9733 149.714 16.0119C156.816 13.9723 158.17 20.8398 159.218 26.7054C161.5 30.1599 163.138 33.8042 164.203 37.5917C164.608 36.832 167.627 30.7241 165.007 23.9777Z" fill="#CCC9C6"/>
<path d="M122.617 208.684C125.702 206.163 128.243 203.413 131.493 203.521C129.154 203.422 120.426 205.296 118.402 206.736C119.762 207.556 121.177 208.189 122.617 208.684Z" fill="#D2CFCB"/>
<path d="M152.447 182.09C152.356 179.69 152.086 177.314 151.643 175.019C150.759 170.444 149.155 166.186 146.686 162.701C137.583 149.863 115.767 126.194 110.107 107.755C111.751 119.313 108.949 133.211 113.578 140.037C115.153 142.065 116.675 144.067 118.128 146.026C129.232 159.277 142.155 166.962 141.748 185.759C141.53 195.718 138.18 199.271 133.284 203.862C133.474 203.926 133.669 204 133.873 204.088C138.599 206.147 145.037 207.526 147.597 203.268C150.903 196.802 152.785 190.815 152.447 182.09Z" fill="#EFECE8"/>
<path d="M142.598 187.352C145.535 163.177 131.576 150.226 118.279 134.988C116.74 133.276 112.298 131.328 114.04 135.341C121.546 147.141 126.553 158.589 127.742 163.35C134.753 191.456 127.051 200.347 118.406 206.738C120.426 205.296 129.157 203.422 131.491 203.523C132.064 203.54 132.658 203.647 133.283 203.862C137.266 200.124 140.043 198.159 141.612 192.208C141.835 191.382 142.033 190.463 142.234 189.447C142.364 188.792 142.507 188.098 142.598 187.352Z" fill="#E7E4E0"/>
<path d="M132.343 169.684C129.097 156.687 121.404 136.398 107.751 118.682C107.542 119.316 106.337 123.139 105.338 125.982C106.246 127.548 107.006 128.87 107.564 129.893C108.266 131.253 108.718 132.197 109.296 133.513C110.658 136.48 111.944 139.271 112.505 140.416C120.083 155.745 121.899 169.802 121.908 178.2C122.472 188.726 117.204 200.804 108.129 206.471C112.246 208.247 115.379 207.253 118.407 206.736C125.794 204.047 139.353 197.793 132.343 169.684Z" fill="#F2EFEA"/>
<path d="M86.2237 20.557C77.0633 33.0782 74.798 53.3809 78.4589 64.157C83.1354 77.9334 85.2273 84.7458 96.7797 103.177C97.8421 104.87 90.7929 76.6948 89.2515 69.841C87.8422 63.5707 83.5648 37.9502 92.6096 17.7549C93.4491 15.8804 94.407 13.8161 95.486 12.0545C91.8554 13.9592 88.7726 17.0778 86.2237 20.557" fill="url(#paint11_linear_3_17)"/>
<path d="M115.134 14.3744C110.934 16.3975 107.303 19.4033 104.248 22.8082C101.185 26.2241 98.8091 30.1932 97.1466 34.4238C93.8325 42.9319 93.5793 52.3372 95.0299 61.3435C96.3951 70.4158 99.6707 79.1854 101.537 88.4311C102.484 93.0388 103.012 97.7759 102.861 102.491C102.698 107.203 101.87 111.877 100.422 116.311C101.328 111.734 101.807 107.099 101.619 102.491C101.482 97.8833 100.703 93.3333 99.6156 88.855C98.5008 84.3821 97.1383 79.9478 95.7978 75.4722C94.4987 70.9856 93.2848 66.4219 92.5471 61.7344C91.837 57.0523 91.5535 52.2767 91.9361 47.5203C92.1645 45.1477 92.4921 42.7805 93.0756 40.4629C93.6289 38.1425 94.3693 35.8551 95.3464 33.6779C97.2512 29.2959 99.9844 25.2909 103.365 21.9659C106.761 18.6876 110.706 15.8966 115.134 14.3744Z" fill="#CCC9C6"/>
<path d="M105.614 125.616C106.547 123.13 107.144 120.548 107.428 117.928C107.656 115.302 107.714 112.665 107.518 110.031C107.24 104.76 106.434 99.5189 105.644 94.2781C104.881 89.0318 104.001 83.7965 103.293 78.5364C102.547 73.2819 102.3 68.008 101.796 62.7232L106.591 94.135C107.381 99.384 108.116 104.661 108.295 109.998C108.399 112.665 108.242 115.34 107.923 117.988C107.472 120.625 106.759 123.215 105.614 125.616Z" fill="#CCC9C6"/>
<path d="M92.424 18.1777C91.4001 21.5193 90.4752 24.8856 89.7981 28.2988C89.0715 31.7064 88.5375 35.147 88.2017 38.6042C87.5053 45.5158 87.5053 52.4962 88.2237 59.3995C88.898 66.3111 90.511 73.0961 92.2341 79.8508C93.0846 83.2364 94.0067 86.6055 94.7802 90.0241C95.5041 93.44 96.195 96.9164 96.0904 100.426C95.9307 96.9274 95.1325 93.5226 94.2214 90.159C93.3186 86.7926 92.3112 83.4511 91.3478 80.093C89.399 73.3824 87.8108 66.5176 87.0236 59.5262C86.663 56.0277 86.5061 52.5127 86.5501 49.0005C86.5969 45.4883 86.7786 41.9761 87.2383 38.4969C87.6952 35.0122 88.3503 31.5633 89.1926 28.1611C90.0761 24.7728 91.1276 21.4285 92.424 18.1777Z" fill="#CCC9C6"/>
<path d="M85.878 21.0543C84.3421 23.9582 83.3016 27.0851 82.4539 30.245C81.6144 33.4076 81.0281 36.6308 80.5629 39.8623C79.6876 46.339 79.5857 52.9093 80.2601 59.3859C80.9317 65.8626 82.4814 72.254 85.0715 78.2077C86.3955 81.1584 87.8901 84.1036 89.3627 87.0048C90.8105 89.9307 92.4813 92.741 94.0392 95.6532C92.9933 94.376 92.0051 93.0631 91.0445 91.7171C90.1114 90.3629 89.2058 88.9756 88.3553 87.5608C87.5268 86.1295 86.7285 84.6844 85.9854 83.2145C85.2312 81.7612 84.5155 80.2583 83.8549 78.7307C81.2483 72.6201 79.7289 66.0856 79.0958 59.5043C78.4407 52.912 78.7985 46.2619 79.8087 39.7494C80.3344 36.496 81.0611 33.2672 82.0327 30.1211C83.0071 26.9805 84.1742 23.8646 85.878 21.0543Z" fill="#DEDBD7"/>
<path d="M92.9811 20.6222C95.9841 16.0585 100.132 12.3261 104.644 9.22124C106.917 7.67982 109.372 6.37788 112.007 5.46404C112.956 5.1475 113.92 4.87225 114.922 4.7126C115.312 4.64654 115.725 4.61351 116.124 4.58599C116.84 4.55296 117.564 4.53919 118.285 4.66031C119.017 4.74839 119.716 4.98235 120.358 5.20255C125.607 7.07152 130.154 10.2094 134.753 13.0417C137.057 14.4538 139.408 15.8108 141.96 16.6228C143.226 17.0301 144.558 17.2806 145.89 17.1898C147.222 17.1072 148.541 16.7054 149.713 16.0117C148.61 16.8099 147.297 17.3384 145.92 17.5063C144.541 17.6908 143.14 17.5146 141.8 17.1788C139.113 16.4659 136.672 15.1502 134.288 13.8317C129.543 11.159 125.043 8.0349 119.967 6.33934C119.32 6.13566 118.725 5.93197 118.106 5.84389C117.487 5.73104 116.84 5.73654 116.196 5.75306C114.908 5.82462 113.611 6.11914 112.356 6.52101C109.829 7.33851 107.454 8.62669 105.158 10.0222C102.868 11.4343 100.699 13.0555 98.6596 14.8254C96.5952 16.5705 94.6684 18.489 92.9811 20.6222Z" fill="#CCC9C6"/>
<path d="M149.712 16.0103C150.796 15.1212 152.184 14.5322 153.648 14.4303C155.104 14.3257 156.593 14.6698 157.895 15.3332C160.21 16.5057 161.922 18.171 163.271 20.4749C163.309 20.5409 163.452 20.7997 163.579 21.0419C163.662 21.196 163.739 21.3474 163.783 21.43C165.236 24.1192 166.169 26.7231 166.282 29.5802C166.428 32.4263 165.781 35.2614 164.207 37.5956C165.456 35.1596 165.894 32.3548 165.646 29.6243C165.374 26.891 164.476 24.2376 163.086 21.8814C161.713 19.5335 159.825 17.4471 157.482 16.1231C156.31 15.4735 155.005 15.0744 153.664 15.0331C152.318 14.9946 150.953 15.3387 149.712 16.0103Z" fill="#BBB8B5"/>
<path d="M108.683 118.124C109.98 124.155 111.984 130.007 114.805 135.449C116.184 138.188 117.75 140.825 119.473 143.357L122.11 147.147L123.426 149.063C123.861 149.701 124.252 150.379 124.667 151.028C126.338 153.64 127.764 156.396 129.124 159.187C130.406 162.011 131.505 164.92 132.361 167.907C133.178 170.896 133.786 173.946 134.059 177.031C134.356 180.114 134.403 181.413 134.29 184.488C134.216 181.408 134.078 180.12 133.649 177.078C133.244 174.031 132.611 171.022 131.717 168.094C130.806 165.165 129.625 162.33 128.359 159.544C126.993 156.803 125.565 154.086 123.886 151.515C123.47 150.871 123.074 150.213 122.644 149.58L121.326 147.692C120.459 146.437 119.55 145.171 118.697 143.883C116.982 141.298 115.422 138.606 114.059 135.823C111.351 130.238 109.517 124.238 108.683 118.124Z" fill="#CCC9C6"/>
<path d="M106.969 101.505C107.435 105.67 108.522 109.735 109.769 113.724C111.021 117.709 112.524 121.618 114.286 125.397C117.82 132.953 122.331 140.098 128.167 146.035C129.634 147.486 131.167 148.994 132.538 150.596C133.917 152.201 135.172 153.91 136.32 155.691C138.61 159.248 140.363 163.153 141.497 167.227C143.402 174.064 143.652 181.284 142.469 188.226C142.238 189.561 141.949 190.893 141.613 192.209C142.433 188.094 142.84 183.913 142.694 179.743C142.584 175.575 141.96 171.422 140.762 167.445C139.551 163.473 137.853 159.644 135.571 156.173C134.434 154.442 133.187 152.774 131.825 151.213C130.462 149.633 128.976 148.226 127.481 146.704C121.616 140.618 117.027 133.39 113.625 125.705C111.93 121.854 110.484 117.891 109.326 113.853C108.756 111.83 108.258 109.793 107.837 107.734C107.424 105.678 107.066 103.6 106.969 101.505Z" fill="#D2CFCB"/>
<path d="M156.925 90.6334C159.108 86.3945 160.9 81.9988 162.469 77.5397C164.04 73.0833 165.342 68.5334 166.391 63.9284C167.423 59.3262 168.153 54.6524 168.444 49.9456C168.56 47.595 168.565 45.225 168.309 42.8881L168.128 41.1265L167.762 39.3952L167.586 38.5254C167.511 38.2364 167.39 37.9666 167.302 37.6859L166.735 35.9931C168.965 40.2485 169.501 45.2085 169.49 49.9731C169.49 52.3761 169.32 54.7735 169.011 57.1572C168.722 59.5354 168.315 61.8998 167.792 64.2422C166.782 68.927 165.367 73.5182 163.603 77.9691C161.825 82.4061 159.645 86.7111 156.925 90.6334Z" fill="#FFFBF7"/>
<path d="M104.974 88.9434C104.806 88.137 104.701 87.6855 104.701 87.6855C104.701 87.6855 104.792 88.1314 104.974 88.9434ZM104.357 124.291C104.812 125.073 105.183 125.687 105.574 126.386C105.756 126.711 105.957 127.049 106.141 127.371C121.649 154.481 145.959 174.258 132.298 195.662C131.079 197.575 129.832 199.537 127.696 201.444C130.165 199.41 132.097 199.653 133.823 199.9C135.64 200.159 137.236 200.421 139.009 198.012C139.51 197.332 140.179 196.234 140.751 194.814C141.06 194.068 141.335 193.245 141.613 192.207C141.613 192.207 149.067 202.268 156.35 194.96C158.802 186.796 159.779 174.497 148.893 161.134C136.507 145.929 128.786 144.393 118.781 127.256C110.867 113.708 106.124 94.0659 104.974 88.9434C106.135 94.4843 110.325 116.758 104.357 124.291" fill="url(#paint12_linear_3_17)"/>
<path d="M89.868 26.7832C87.6413 36.5932 86.243 50.964 88.4753 65.6377C89.4469 72.0539 94.1978 86.0614 95.274 92.8134C92.5407 71.2583 82.2876 30.0119 115.136 14.3693C107.314 16.3098 91.9379 27.8402 89.868 26.7832" fill="url(#paint13_linear_3_17)"/>
<path d="M127.179 1.00574C121.384 1.09382 112.232 3.57662 105.868 4.20145C103.843 4.39687 102.279 4.77121 101.032 5.25565C97.3824 6.67595 96.4713 9.08446 94.963 11.0525C94.0766 12.2113 93.4601 12.5664 92.6481 12.7535C92.6288 12.7563 92.6096 12.7564 92.5958 12.7646C86.4164 14.9804 71.8197 32.9928 74.9714 57.8399C75.1971 60.2786 75.7118 62.654 76.3697 64.9799C82.4004 88.8305 102.607 120.818 107.567 129.896C103.911 138.307 96.1108 155.579 93.6225 171.844C93.5179 172.397 92.9178 176.135 92.8793 179.265C92.5435 187.544 94.0959 195.108 98.8963 200.542C98.9238 200.577 99.8349 201.557 99.8762 201.599C102.323 204.013 105.219 205.549 108.126 206.473H108.128C112.246 208.241 115.384 207.252 118.403 206.738C119.76 207.558 121.175 208.191 122.615 208.684C131.28 211.678 140.971 209.276 145.516 206.738C151.607 204.759 154.384 201.178 156.124 195.64C157.877 190.421 160.561 179.763 154.489 163.997C151.753 157.184 146.27 146.526 137.809 131.038L137.756 130.944C144.533 118.115 162.689 86.3753 165.923 77.0938C166.096 76.6038 166.251 76.1305 166.402 75.657C171.888 61.6136 175.474 43.0313 166.08 25.7482C165.612 24.8426 163.878 21.5974 163.278 20.4716C163.168 20.268 163.093 20.1332 163.074 20.1029C155.494 6.18062 155.238 8.82025 150.501 7.98348C150.33 7.95871 150.148 7.90639 149.972 7.86235C144.58 6.62371 135.315 3.1143 130.795 1.45178C129.992 1.16001 128.976 1.025 127.79 1.00574H127.179ZM133.096 123.289C132.816 122.81 132.546 122.359 132.273 121.897C121.836 103.135 110.597 86.791 104.489 71.4126C103.138 67.2563 102.081 63.1634 101.423 59.2465C99.1193 48.0272 100.08 41.4322 104.368 32.3599C108.489 23.6206 120.95 12.7178 127.922 16.0539C135.587 19.7258 139.804 20.5928 142.587 20.2543C145.26 19.9239 146.587 18.4679 148.362 17.0145C148.731 16.6925 149.634 16.0676 149.711 16.007C153.875 19.2137 156.746 22.9572 159.223 26.7006C180.231 58.4345 145.549 107.017 134.302 125.252C133.545 123.986 133.102 123.292 133.096 123.289ZM107.272 196.339C105.701 196.132 104.129 195.513 102.618 194.481C100.515 193.025 98.9459 190.875 98.1366 188.45C95.6951 181.112 96.2071 166.532 109.295 133.515C110.663 136.477 111.949 139.271 112.505 140.416C120.08 155.744 121.899 169.802 121.91 178.202C121.093 188.764 115.998 195.174 110.253 196.251C109.623 196.35 109.006 196.396 108.404 196.396C108.021 196.396 107.644 196.374 107.272 196.339" fill="url(#paint14_linear_3_17)"/>
<path d="M127.47 1.00287C121.695 1.00838 112.337 3.56544 105.868 4.20127C103.843 4.3967 102.279 4.77103 101.032 5.25548C97.3824 6.67578 96.4713 9.08429 94.963 11.0523C94.0766 12.2112 93.4601 12.5662 92.6481 12.7533C92.6288 12.7561 92.6096 12.7562 92.5958 12.7644C86.4164 14.9802 71.8197 32.9927 74.9714 57.8397C75.1971 60.2784 75.7118 62.6539 76.3697 64.9797C82.4004 88.8304 102.607 120.818 107.567 129.895C103.911 138.307 96.1108 155.579 93.6225 171.844C93.5179 172.397 92.9178 176.135 92.8793 179.27C92.5435 187.544 94.0959 195.108 98.8963 200.542C98.9238 200.577 99.8349 201.557 99.8762 201.599C102.323 204.013 105.219 205.548 108.126 206.473H108.128C112.246 208.24 115.384 207.252 118.403 206.738C119.76 207.558 121.175 208.191 122.615 208.684C125.557 209.699 128.615 210.093 131.552 210.076C137.264 210.035 142.518 208.411 145.516 206.738C151.607 204.758 154.384 201.178 156.124 195.639C157.877 190.421 160.561 179.763 154.489 163.996C151.753 157.184 146.27 146.526 137.809 131.038L137.756 130.944C144.533 118.115 162.689 86.3751 165.923 77.0936C166.096 76.6037 166.251 76.1303 166.402 75.6569C171.888 61.6135 175.474 43.0311 166.08 25.748C165.612 24.848 163.878 21.5973 163.278 20.4715C163.168 20.2678 163.093 20.133 163.074 20.1027C155.494 6.18044 155.238 8.82007 150.501 7.9833C150.33 7.95853 150.148 7.90622 149.972 7.86218C144.58 6.62354 135.315 3.11413 130.795 1.4516C129.937 1.13782 128.822 1.00287 127.528 1.00287H127.47ZM133.096 123.289C132.816 122.81 132.546 122.359 132.273 121.897C121.836 103.135 110.597 86.7908 104.489 71.4125C103.138 67.2562 102.081 63.1632 101.423 59.2464C99.1193 48.0271 100.08 41.432 104.368 32.3597C108.489 23.6204 120.95 12.7177 127.922 16.0537C135.587 19.7256 139.804 20.5926 142.587 20.2541C145.26 19.9238 146.587 18.4677 148.362 17.0144C148.731 16.6923 149.634 16.0674 149.711 16.0069C153.875 19.2135 156.746 22.957 159.223 26.7004C180.231 58.4343 145.549 107.016 134.302 125.252C133.545 123.986 133.102 123.292 133.096 123.289ZM107.272 196.338C105.701 196.132 104.129 195.513 102.618 194.481C100.515 193.024 98.9459 190.875 98.1366 188.45C95.6951 181.111 96.2071 166.531 109.295 133.515C110.663 136.477 111.949 139.27 112.505 140.415C120.08 155.744 121.899 169.801 121.91 178.202C121.093 188.764 115.998 195.174 110.253 196.25C109.623 196.35 109.006 196.396 108.404 196.396C108.021 196.396 107.644 196.374 107.272 196.338" fill="url(#paint15_linear_3_17)"/>
<path d="M125.72 181.234C125.915 171.572 124.088 162.043 121.06 152.982C118.016 143.904 113.755 135.28 108.825 127.075C106.375 122.952 103.818 118.826 101.421 114.645C99.0232 110.453 96.6698 106.241 94.4348 101.958C89.9647 93.4062 85.7616 84.6807 82.6072 75.5479C84.5587 79.9629 86.6424 84.2871 88.9077 88.5398C91.1235 92.8089 93.4356 97.0258 95.7973 101.221C100.51 109.616 105.472 117.832 110.487 126.081C115.437 134.408 119.681 143.219 122.475 152.533C123.881 157.179 124.927 161.939 125.511 166.753C126.075 171.564 126.18 176.436 125.72 181.234Z" fill="#E1DEDA"/>
<g opacity="0.429993">
<path d="M88.9047 88.5388C91.1205 92.8053 93.4381 97.0276 95.7943 101.22C96.7659 102.948 97.7458 104.671 98.7395 106.389C101.586 110.922 104.77 115.591 108.263 120.119C124.286 140.911 134.354 162.092 127.096 182.532C125.778 186.253 126.441 187.999 128.112 188.07H128.332C132.94 187.883 144.184 176.278 144.365 158.808V157.955C144.241 145.954 138.877 131.283 122.714 115.684C97.5889 96.601 82.6097 75.5524 82.6097 75.5524C84.5585 79.9647 86.6394 84.2889 88.9047 88.5388" fill="url(#paint16_linear_3_17)"/>
</g>
<path d="M109.296 133.513C108.718 132.198 108.266 131.254 107.564 129.894C103.912 138.308 96.111 155.58 93.62 171.845C93.5209 172.396 92.9181 176.142 92.8796 179.274C92.9346 179.833 93.0172 180.359 93.1246 180.84C95.3211 190.32 98.7397 191.933 100.163 192.175C99.2737 191.074 98.5911 189.811 98.1397 188.448C95.6954 181.116 96.2046 166.53 109.296 133.513Z" fill="#F2EFEA"/>
<path d="M154.489 163.994C151.756 157.187 146.273 146.526 137.812 131.032L137.759 130.947C137.759 130.947 132.276 121.899 132.271 121.897C121.836 103.136 110.6 86.7938 104.487 71.4072C103.141 67.2564 102.078 63.1634 101.423 59.2465C101.418 59.23 101.418 59.2163 101.415 59.1997C101.409 59.1722 101.407 59.1502 101.398 59.1282C101.993 62.9377 101.839 66.882 103.066 72.9513C105.445 84.3028 110.6 96.846 120.074 108.481C131.247 122.191 143.925 138.938 149.752 164.646C150.501 167.952 151.621 175.323 152.064 182.16C152.598 190.404 151.057 196.16 148.114 202.229C148.186 202.331 149.956 204.687 155.084 197.528C155.496 196.903 155.824 196.27 156.124 195.64C157.877 190.421 160.564 179.766 154.489 163.994Z" fill="#FFFBF7"/>
<path d="M82.128 39.5494C82.128 43.8048 85.5769 47.2482 89.8323 47.2482C94.0904 47.2482 97.5393 43.8048 97.5393 39.5494C97.5393 35.294 94.0904 31.8422 89.8323 31.8422C85.5769 31.8422 82.128 35.294 82.128 39.5494ZM90.8617 35.9049C90.0828 35.6049 89.5928 34.8617 89.5873 34.069C89.6671 34.0635 89.7469 34.047 89.8323 34.047C91.0957 34.047 92.2462 34.4847 93.1738 35.2059C92.8023 35.7261 92.1967 36.0343 91.5664 36.0343C91.3297 36.0343 91.0929 35.993 90.8617 35.9049M84.7071 37.5703C85.1778 36.3565 86.0696 35.3655 87.1954 34.7462C87.3688 35.0352 87.4734 35.3792 87.4734 35.7342C87.4734 36.8352 86.5843 37.7244 85.486 37.7244C85.208 37.7244 84.9521 37.6749 84.7071 37.5703ZM88.6487 41.5009L87.6578 39.6347C87.5477 39.4228 87.5862 39.164 87.7459 38.9906L89.2212 37.4712C89.3864 37.2978 89.6451 37.2483 89.857 37.3556L91.759 38.2858C91.9765 38.3904 92.0976 38.6189 92.0618 38.8584L91.7673 40.953C91.7343 41.1925 91.5499 41.3798 91.3186 41.4211L89.235 41.7843C89.2047 41.7898 89.1689 41.7898 89.1386 41.7898C88.935 41.7898 88.7478 41.6825 88.6487 41.5009M93.5592 39.9374C93.5592 38.9961 94.217 38.2171 95.0868 38.0024C95.2355 38.4979 95.3346 39.0071 95.3346 39.5494C95.3346 40.3476 95.1584 41.1044 94.8446 41.7898C94.0959 41.5091 93.5592 40.7852 93.5592 39.9374M84.5006 40.8485C84.6603 40.8072 84.8282 40.7796 85.0043 40.7796C86.0971 40.7796 86.9917 41.6661 86.9917 42.7671C86.9917 43.224 86.8375 43.6313 86.5788 43.9671C85.5549 43.2102 84.8089 42.1202 84.5006 40.8485ZM89.3396 45.002C89.4634 44.0249 90.2892 43.2708 91.2994 43.2708C91.9627 43.2708 92.549 43.6039 92.9123 44.1076C92.037 44.7021 90.9773 45.0489 89.8323 45.0489C89.6616 45.0489 89.4992 45.0185 89.3396 45.002" fill="url(#paint17_linear_3_17)"/>
<path d="M90.7461 25.5773L92.5242 28.6603L95.607 26.882L93.8289 23.7992L90.7461 25.5773Z" fill="url(#paint18_linear_3_17)"/>
<path d="M86.3696 53.2127L88.9349 55.6871L91.4095 53.1329L88.8469 50.65L86.3696 53.2127Z" fill="url(#paint19_linear_3_17)"/>
<path d="M138.07 182.645C137.795 183.005 137.646 183.608 137.58 184.382C137.514 185.166 137.542 185.868 137.6 186.537C137.311 186.22 136.738 186.116 136.432 186.35C136.512 186.661 136.617 186.944 136.658 187.277C136.691 187.508 136.691 187.764 136.694 188.012C136.157 188.406 135.538 188.94 135.453 189.936C135.439 190.096 135.444 190.242 135.444 190.393C135.243 189.76 134.894 189.113 134.72 188.563C134.564 188.073 134.283 187.602 134.007 187.354C133.928 187.274 133.823 187.25 133.727 187.192C133.666 187.354 133.619 187.528 133.559 187.676C133.534 187.751 133.523 187.828 133.493 187.976C133.308 187.786 133.16 187.613 132.975 187.478C132.838 187.379 132.673 187.335 132.505 187.302C132.152 187.222 132.092 187.307 132.092 187.822C132.092 187.99 132.083 188.169 132.078 188.389C131.31 188.095 130.883 188.717 130.9 188.733C131.062 188.885 131.205 188.978 131.241 189.212C131.277 189.432 131.189 189.779 131.079 190.079C130.859 190.674 131.004 191.684 131.431 192.078C131.737 192.361 132.304 192.309 132.703 191.921C133.165 191.491 133.308 190.165 133.05 189.752C132.893 189.504 132.783 189.501 132.477 189.71C132.557 189.884 132.717 190.052 132.695 190.247C132.673 190.467 132.518 190.773 132.361 190.946C132.147 191.178 131.905 191.2 131.731 191.01C131.428 190.671 131.423 190.085 131.704 189.534C131.783 189.383 131.982 189.099 132.083 189.022C132.518 188.706 133.033 188.615 133.35 188.841C133.702 189.091 133.917 189.496 133.961 190.096C134.043 191.142 133.501 192.771 133.551 193.812C133.586 194.775 134.274 195.155 135.075 195.312C135.428 195.381 136.339 195.485 136.526 195.554C137.478 195.895 138.304 195.843 138.811 194.965C139.331 194.065 139.614 192.367 140.17 191.472C140.492 190.963 140.864 190.704 141.293 190.633C141.684 190.58 142.097 190.883 142.339 191.368C142.4 191.483 142.438 191.822 142.444 191.998C142.433 192.614 142.155 193.135 141.734 193.291C141.483 193.382 141.277 193.261 141.197 192.953C141.139 192.73 141.145 192.389 141.23 192.177C141.299 191.998 141.514 191.926 141.665 191.805C141.492 191.478 141.393 191.425 141.139 191.577C140.718 191.83 140.278 193.049 140.492 193.638C140.66 194.164 141.145 194.467 141.544 194.354C142.114 194.194 142.656 193.396 142.744 192.755C142.783 192.446 142.871 192.1 142.997 191.915C143.138 191.72 143.306 191.703 143.528 191.648C143.545 191.643 143.559 191.604 143.589 191.557C143.465 190.883 143.003 190.993 142.639 190.811C142.733 190.605 142.807 190.451 142.89 190.294C143.129 189.837 143.113 189.732 142.761 189.653C142.598 189.609 142.433 189.564 142.26 189.595C142.039 189.625 141.822 189.721 141.571 189.804C141.61 189.658 141.635 189.584 141.649 189.512C141.671 189.347 141.706 189.168 141.728 189C141.684 189.006 141.646 189.006 141.607 189C141.536 189 141.467 188.995 141.393 189.017C141.04 189.116 140.803 189.336 140.355 189.6C139.936 189.848 139.397 190.473 138.959 191.1C139.012 190.883 139.072 190.671 139.152 190.476C139.435 189.752 139.383 189.306 139.102 188.959L138.783 188.441C138.816 188.364 138.852 188.276 138.885 188.174C139.034 187.69 139.262 187.313 139.441 186.834C139.361 186.528 138.816 186.245 138.456 186.372C138.659 185.717 138.8 185.004 138.805 184.172C138.8 183.413 138.621 182.945 138.417 182.584C138.387 182.532 138.343 182.51 138.299 182.51C138.222 182.51 138.136 182.568 138.07 182.645M124.076 191.643C123.953 191.211 123.826 190.773 123.691 190.302C123.119 190.415 122.777 190.853 122.529 191.321C122.287 191.786 122.161 192.303 121.973 192.78C121.742 192.581 121.511 192.372 121.274 192.163C120.537 193.036 120.416 193.949 121.084 195.017C121.632 195.887 122.279 196.685 122.898 197.475C123.603 198.381 124.319 199.245 124.368 200.429C124.42 201.535 123.826 202.501 122.885 203.291C122.139 203.922 121.31 204.156 120.27 204.161C120.237 204.161 120.149 204.469 120.132 204.527C120.226 204.959 121.002 204.764 121.393 204.665C124.33 203.922 126.226 201.692 125.345 199.435C125.007 198.538 123.862 197.112 123.424 196.242C123.058 195.529 122.73 194.808 122.887 193.966C123.083 192.972 124.052 192.003 125.282 192.207C125.981 192.32 126.534 192.898 126.529 193.6C126.523 194.051 126.138 194.649 125.692 194.844C125.403 194.965 125.103 195.006 124.88 194.797C124.676 194.593 124.676 194.34 124.811 194.065C124.833 194.021 124.839 193.971 124.85 193.919C124.398 193.955 123.831 194.571 123.895 195.053C124.013 195.895 125.907 196.567 126.777 195.994C127.575 195.477 128.004 194.266 127.718 193.291C127.44 192.35 127.016 191.857 126.122 191.568C126.025 191.53 125.943 191.491 125.871 191.453C126.05 191.001 126.196 190.61 126.347 190.181C126.292 190.178 126.234 190.178 126.177 190.178C125.191 190.178 124.638 190.798 124.076 191.643M130.809 195.108C130.237 195.353 129.548 196.038 129.419 196.512C129.7 196.438 129.961 196.344 130.204 196.303C130.729 196.237 131.084 196.495 131.178 196.985C131.255 197.401 130.952 198.13 130.531 198.486C129.848 199.066 129.127 199.578 128.42 200.115C127.597 200.723 127.228 201.444 127.289 202.265C127.363 203.36 128.285 204.142 128.447 204.299C127.019 206.113 125.323 207.627 123.6 209.003C124.074 209.141 124.55 209.273 125.023 209.377C126.576 208.056 128.09 206.652 129.554 205.047C130.798 205.595 132.32 205.716 133.515 204.797C134.283 204.202 134.638 203.481 134.946 202.724C135.18 202.152 135.359 201.571 135.557 200.988C135.832 200.195 136.408 199.556 137.011 199.319C137.564 199.105 137.894 199.377 137.944 200.099C137.946 200.195 137.952 200.283 137.963 200.443C138.343 199.961 138.483 199.474 138.588 199.019C138.772 198.152 138.568 197.621 138.205 197.274C137.773 196.87 137.046 196.839 136.306 197.401C136.017 197.607 135.648 198.026 135.381 198.433C135.029 198.973 134.742 199.518 134.473 200.068C133.597 201.227 132.887 201.981 132.403 202.433C132.94 201.629 133.35 200.776 133.707 199.914C134.019 199.171 134.275 198.417 134.522 197.657C134.555 197.563 134.569 197.464 134.608 197.291C134.475 197.418 134.401 197.464 134.343 197.539C133.314 198.785 132.152 199.917 130.999 201.023C130.883 201.131 130.795 201.252 130.688 201.37C130.738 200.776 131.172 200.005 131.627 199.336C131.797 199.163 131.957 198.989 132.108 198.802C132.582 198.243 132.992 197.569 133.251 196.917C133.581 196.061 133.297 195.513 132.802 195.18C132.513 194.981 132.191 194.871 131.825 194.871C131.525 194.871 131.183 194.948 130.809 195.108M119.05 197.222C118.549 197.192 117.545 197.153 117.534 197.192C120.347 198.615 121.175 200.572 121.632 202.967C122.238 202.672 122.835 200.866 122.73 199.917C122.59 198.598 121.858 197.638 120.655 196.724C120.622 196.906 120.6 197.01 120.567 197.148C119.912 196.848 119.502 196.212 118.668 196.077C118.803 196.49 118.924 196.848 119.05 197.222M144.401 200.671C144.354 200.646 144.283 200.619 144.206 200.577C143.663 200.272 141.629 199.815 140.586 200.935C139.868 201.731 139.009 203.729 140.325 204.591C140.647 204.794 140.881 204.992 141.393 204.742C141.819 204.524 142.103 204.128 142.301 203.674C142.339 203.591 142.345 203.501 142.375 203.371C142.293 203.434 142.249 203.459 142.207 203.506C141.783 203.969 141.536 204.09 141.329 203.949C141.123 203.823 140.96 203.06 141.194 202.639C141.819 201.519 142.997 201.142 143.581 201.499C144.043 201.786 144.148 202.402 143.776 203.319C143.341 204.39 142.612 205.248 141.734 205.612C140.933 205.942 140.146 206.069 139.358 206.173C138.868 206.231 138.384 206.116 137.875 206.005C137.233 205.86 136.565 205.716 135.843 205.917C133.897 206.473 131.627 208.262 130.336 210.057C130.594 210.071 130.85 210.076 131.109 210.076C131.483 209.636 131.929 209.204 132.452 208.808C133.95 207.651 135.433 207.057 136.832 207.12C137.935 207.178 138.915 207.387 139.939 207.431C140.567 207.462 141.181 207.5 141.833 207.384C142.75 207.219 143.639 206.52 144.412 205.248C144.164 205.196 143.936 205.149 143.68 205.086C144.753 204.123 145.609 202.997 145.89 201.505C145.447 201.813 145.037 202.069 144.607 202.32C144.891 201.722 145.169 201.155 145.342 200.602C145.527 200.016 145.505 199.542 145.296 199.22C145.001 199.71 144.729 200.162 144.401 200.671M123.05 204.838C122.436 205.339 122.452 206.173 122.959 206.831C123.13 207.054 123.325 207.247 123.457 207.401C123.988 206.963 124.445 206.515 124.96 206.121C126.1 205.243 126.43 204.224 126.265 203.17C126.226 202.912 126.152 202.661 126.083 202.333C125.054 203.253 124.013 204.043 123.05 204.838ZM118.007 205.166C117.459 205.144 116.939 205.116 116.413 205.053C116.408 205.097 116.997 205.664 117.344 205.926C117.093 206.138 116.859 206.33 116.623 206.52C119.133 206.421 120.999 207.583 122.868 208.747C122.629 207.241 120.495 205.213 117.908 204.844C117.938 204.948 117.969 205.048 118.007 205.166M128.026 208.386C127.627 208.846 127.071 209.275 126.598 209.691C127.49 209.845 128.368 209.944 129.246 209.999C129.347 209.953 129.449 209.897 129.543 209.826C130.03 209.476 130.429 209.006 130.834 208.562C131.128 208.235 131.351 207.861 131.635 207.511C131.899 207.178 132.199 206.859 132.491 206.512C130.682 206.564 129.169 207.068 128.026 208.386M137.41 208.32C135.857 208.452 134.148 209.162 132.505 210.052C135.098 209.955 137.575 209.54 139.763 208.962C139.268 208.529 138.643 208.304 137.825 208.304C137.693 208.304 137.553 208.312 137.41 208.32" fill="url(#paint20_linear_3_17)"/>
<path d="M122.119 128.555C122.037 128.566 121.968 128.61 121.962 128.693V128.72C121.99 129.174 122.114 129.7 122.56 130.38C123.052 131.131 123.592 131.69 124.164 132.161C123.771 132.265 123.449 132.838 123.567 133.163C124.005 133.485 124.434 133.694 124.85 134.041C125.722 134.756 126.171 134.374 126.24 134.052C126.259 133.936 126.124 133.727 125.923 133.485C126.108 133.653 126.317 133.766 126.534 133.763C126.917 133.677 127.176 133.501 126.887 132.901C126.733 132.596 126.455 132.246 126.303 131.927C126.144 131.591 126.069 131.28 125.954 130.955C125.544 130.922 125.092 131.349 125.029 131.806C124.682 131.167 124.291 130.518 123.765 129.854C123.253 129.196 122.758 128.739 122.304 128.577C122.271 128.566 122.235 128.558 122.202 128.555H122.119ZM129.463 131.393C129.568 132.131 130.338 133.358 131.109 134.308C130.776 133.523 130.911 133.077 131.214 132.689C131.329 132.546 131.299 132.004 130.878 131.489C130.716 131.288 130.341 130.911 130.096 130.842C130.016 130.818 129.939 130.807 129.876 130.807C129.543 130.807 129.422 131.098 129.463 131.393M134.66 132.086C134.481 132.23 134.162 132.491 133.983 133.479C133.834 133.284 133.418 132.915 133.22 132.742C133.146 132.868 133.044 132.962 133.003 133.11C132.865 133.562 132.94 134.104 133.256 134.693C133.796 135.714 134.387 136.719 134.985 137.718C136.086 139.562 137.143 141.332 136.543 142.951C136.669 142.942 136.71 142.945 136.733 142.942C136.774 142.929 136.796 142.876 136.829 142.857C137.652 142.282 138.263 141.31 137.663 140.143C137.046 138.937 135.392 137.424 134.817 136.188C134.481 135.48 134.464 134.886 134.698 134.377C134.913 133.92 135.541 133.689 136.234 133.766C136.399 133.788 136.804 133.989 136.988 134.104C137.663 134.561 138.037 135.23 137.905 135.797C137.831 136.124 137.547 136.265 137.159 136.13C136.873 136.031 136.501 135.783 136.333 135.549C136.185 135.345 136.259 135.059 136.237 134.809C135.758 134.762 135.632 134.834 135.618 135.213C135.587 135.849 136.358 136.766 137.154 136.956C137.847 137.146 138.53 136.837 138.69 136.325C138.921 135.602 138.673 134.867 138.04 134.322C137.726 134.063 137.407 133.722 137.302 133.446C137.195 133.168 137.294 132.967 137.379 132.684C137.39 132.659 137.357 132.621 137.333 132.557C136.507 132.21 136.295 132.786 135.838 133.05C135.689 132.799 135.571 132.607 135.453 132.406C135.257 132.059 135.142 131.908 134.996 131.908C134.905 131.908 134.8 131.971 134.66 132.086M128.208 133.124C128.07 133.254 127.982 133.523 128.125 133.782C128.403 134.308 128.968 134.831 129.59 135.131C130.776 135.703 131.852 136.565 132.651 137.666C132.788 137.861 132.92 138.06 133.05 138.26C132.364 137.581 131.566 136.959 130.842 136.325C130.063 135.657 129.312 135.345 128.676 135.376C128.489 135.387 128.357 135.558 128.365 135.745C128.395 136.4 128.838 137.071 129.502 137.875C130.063 138.555 130.625 139.337 131.236 140.074C131.106 139.964 130.971 139.862 130.842 139.752C129.904 138.995 129.089 138.082 128.434 137.027C128.106 136.499 126.664 134.729 126.039 135.615C125.813 135.935 126.16 136.573 126.829 137.088C127.423 137.539 128.032 137.919 128.632 138.354C128.643 139.081 128.921 139.549 129.788 140.179C130.289 140.534 130.79 140.806 131.288 141.153C131.437 141.258 131.651 141.453 131.704 141.594C131.957 142.304 132.425 142.678 132.934 142.904C133.515 143.16 134.038 143.171 134.412 143.16C134.753 143.146 135.106 142.962 135.342 142.642C135.692 142.177 135.907 140.955 135.384 139.983C135.21 139.664 134.886 139.295 134.586 139.042C134.343 138.827 134.197 138.69 134.057 138.39C133.776 137.776 133.418 137.165 133.003 136.576C132.408 135.75 131.888 135.483 131.316 135.546C130.815 134.924 130.36 134.346 129.832 133.815C129.353 133.339 128.789 133.047 128.445 133.047C128.346 133.047 128.263 133.072 128.208 133.124M124.162 138.373C124.164 139.21 125.414 139.328 125.722 139.21C126.102 139.064 126.344 138.772 126.719 138.637C126.975 138.555 127.366 138.654 127.831 138.681C127.016 138.17 125.783 137.564 124.976 137.564C124.492 137.564 124.159 137.781 124.162 138.373M125.948 139.89C125.802 139.923 125.7 140.016 125.571 140.08C125.75 140.292 126.022 140.71 126.256 140.889C125.918 140.963 125.618 140.991 125.351 141.095C125.136 141.173 124.982 141.324 124.82 141.475C124.481 141.797 124.533 141.927 125.087 142.29C125.282 142.417 125.461 142.546 125.709 142.714C124.842 143.331 125.219 144.236 125.246 144.231C125.527 144.156 125.731 144.071 126.009 144.198C126.273 144.324 126.595 144.666 126.834 144.99C127.341 145.662 128.057 145.954 128.794 145.772C129.32 145.646 129.661 144.988 129.518 144.277C129.375 143.476 128.516 142.642 127.883 142.634C127.501 142.626 127.418 142.747 127.432 143.223C127.685 143.267 127.968 143.207 128.164 143.366C128.39 143.551 128.615 143.936 128.695 144.231C128.802 144.63 128.648 144.897 128.315 144.949C127.74 145.045 127.093 144.63 126.686 143.931C126.576 143.735 126.408 143.325 126.397 143.154C126.361 142.455 126.628 141.844 127.101 141.662C127.627 141.462 128.216 141.519 128.899 141.894C130.096 142.557 131.5 144.3 132.667 144.99C133.793 145.662 134.803 145.12 135.428 144.335C135.45 144.305 135.502 144.283 135.519 144.244C135.521 144.225 135.519 144.178 135.538 144.052C133.886 144.55 132.188 143.38 130.415 142.166C129.463 141.506 128.494 140.848 127.514 140.242C127.088 139.981 126.68 139.846 126.309 139.846C126.185 139.846 126.064 139.862 125.948 139.89ZM139.81 140.746C138.926 141.203 138.535 142.442 139.35 144.03C139.551 144.41 139.793 144.811 140.071 145.161C141.15 146.526 142.361 147.633 143.559 148.764C144.285 149.463 144.968 150.22 145.659 150.985C147.437 152.964 147.11 155.312 147.159 155.422C147.952 154.131 148.645 152.802 147.993 150.743C147.577 149.458 146.705 148.582 145.805 147.801C145.122 147.201 144.407 146.691 143.696 146.138C142.73 145.387 142.114 144.289 142.075 143.35C142.039 142.494 142.571 142.169 143.592 142.452C143.724 142.488 143.801 142.508 144.032 142.574C143.658 141.88 142.986 141.409 142.4 141.051C141.77 140.669 141.23 140.518 140.759 140.518C140.404 140.518 140.091 140.606 139.81 140.746M138.343 146.155C139.579 148.159 140.594 150.289 141.58 152.4C142.078 153.446 142.791 154.41 143.443 155.329C143.685 155.665 144.192 155.758 144.574 155.833C144.841 155.885 145.029 155.962 145.199 156.284C147.404 160.325 149.135 164.547 150.523 168.618C150.564 168.756 150.597 168.965 150.545 169.083C149.936 170.303 150.305 171.175 150.938 171.968C151.439 172.601 152.361 173.884 152.722 173.853C152.796 173.091 152.882 172.339 152.868 171.591C152.865 170.916 152.838 170.206 152.642 169.576C152.526 169.193 152.105 168.97 151.822 168.668C151.618 168.453 151.321 168.288 151.227 168.021C149.76 164.043 148.004 159.898 145.788 155.962C145.568 155.555 145.516 155.274 145.653 154.877C145.885 154.187 145.667 153.419 145.26 152.697C144.211 150.867 142.799 149.452 141.329 148.153C140.446 147.374 139.526 146.669 138.593 145.965C138.478 145.874 138.351 145.813 138.131 145.676C138.238 145.912 138.274 146.045 138.343 146.155M134.349 147.137C133.586 147.702 133.215 148.544 133.308 149.832C133.38 150.729 133.997 152.001 134.591 152.403C134.624 151.987 134.616 151.583 134.676 151.236C134.833 150.487 135.359 150.116 136.075 150.22C136.691 150.319 137.553 151.082 137.842 151.828C138.326 153.033 138.703 154.266 139.1 155.491C139.557 156.906 140.374 157.779 141.541 158.068C142.491 158.304 143.41 158.123 144.338 157.707C143.944 157.468 143.639 157.272 143.319 157.091C142.312 156.504 141.646 155.48 141.134 154.269C140.495 152.761 139.898 151.217 139.036 149.818C138.483 148.899 137.748 148.018 136.964 147.355C136.435 146.912 135.943 146.73 135.491 146.73C135.07 146.73 134.685 146.89 134.349 147.137M126.595 156.834C125.97 156.73 125.334 156.631 124.646 156.521C124.456 157.305 124.809 158.004 125.26 158.604C125.709 159.188 126.295 159.65 126.796 160.17C126.4 160.349 125.992 160.517 125.593 160.688C126.265 162.138 127.366 162.849 129.127 162.645C130.564 162.474 131.965 162.128 133.355 161.814C134.938 161.464 136.466 161.076 138.01 161.723C139.463 162.323 140.338 163.65 140.79 165.312C141.145 166.636 140.949 167.828 140.338 169.144C140.319 169.182 140.614 169.466 140.729 169.537C140.908 169.003 141.459 168.178 141.571 167.624C142.381 163.468 139.592 160.561 136.174 160.325C134.828 160.215 133.463 160.377 132.086 160.413C130.958 160.449 129.835 160.429 128.863 159.73C127.707 158.882 127.044 157.079 128.037 155.645C128.607 154.828 129.675 154.481 130.561 154.899C131.145 155.177 131.679 156.022 131.657 156.705C131.646 157.151 131.519 157.553 131.115 157.707C130.729 157.847 130.41 157.699 130.135 157.355C130.091 157.305 130.03 157.269 129.978 157.225C129.747 157.814 130.201 158.893 130.859 159.102C131.998 159.463 133.146 157.996 132.934 156.556C132.75 155.238 132.136 154.132 130.977 153.614C129.705 153.05 128.626 153.251 127.724 154.198C127.616 154.302 127.517 154.379 127.426 154.456C126.95 153.958 126.537 153.537 126.083 153.086C125.334 154.423 125.805 155.555 126.595 156.834M133.055 159.003C134.352 158.962 135.7 157.3 135.089 155.822C134.649 154.718 133.319 153.81 132.287 153.176C133.886 155.007 134.533 156.994 133.055 159.003ZM149.614 161.307C150.071 162.075 150.374 162.964 150.718 163.801C151.962 163.044 152.843 161.541 152.331 159.915C152.07 159.083 151.618 158.315 151.197 157.558C150.875 156.991 150.47 156.501 150.124 155.954C149.782 155.428 149.485 154.869 149.141 154.305C148.351 156.807 148.332 159.114 149.614 161.307M144.822 164.44C145.227 165.521 146.388 165.901 147.542 165.521C147.927 165.389 148.293 165.216 148.566 165.109C148.211 164.17 147.806 163.339 147.506 162.444C146.837 160.462 145.585 159.524 144.043 159.246C143.666 159.182 143.275 159.16 142.796 159.1C143.586 160.947 144.178 162.739 144.822 164.44M131.131 164.269C131.368 164.407 131.5 164.478 131.676 164.588C130.958 165.348 129.879 165.601 129.29 166.677C129.931 166.688 130.487 166.694 131.057 166.699C130.784 167.368 130.256 168.731 130.3 168.767C133.603 165.585 136.702 165.381 140.231 165.907C140.113 164.935 137.894 163.251 136.532 162.942C136.097 162.843 135.673 162.794 135.257 162.794C133.859 162.794 132.543 163.336 131.131 164.269ZM152.028 165.29C152.912 164.943 153.79 164.621 154.657 164.44C154.599 164.291 154.547 164.14 154.489 163.994C154.34 163.622 154.178 163.234 154.016 162.838C153.151 163.537 152.422 164.431 152.028 165.29ZM152.202 167.478C152.152 167.495 152.116 167.567 152.028 167.699C153.355 167.935 153.848 169.102 154.095 170.454C154.863 170.267 155.21 169.606 155.546 169.009C155.835 169.273 156.105 169.587 156.413 169.813C156.146 168.841 155.846 167.845 155.507 166.826C155.331 166.807 155.152 166.793 154.979 166.793C154.043 166.793 153.121 167.079 152.202 167.478M140.666 172.133C140.826 172.138 140.985 172.141 141.164 172.144C140.872 172.879 140.583 173.586 140.25 174.272C140.303 174.305 141.376 173.768 141.902 173.416C142.075 173.867 142.227 174.274 142.378 174.687C143.438 171.2 145.923 169.207 148.42 167.2C148.235 167.167 148.04 167.154 147.836 167.154C145.596 167.154 142.262 169.053 140.666 172.133M148.778 169.771C147.913 170.515 147.11 171.335 146.675 172.458C146.248 173.537 146.383 174.401 147.074 175.136C147.941 174.346 148.588 173.551 148.334 172.549C148.94 172.516 149.518 172.474 150.25 172.422C149.708 171.23 149.372 170.176 150.113 168.904C150.071 168.871 150.035 168.835 149.991 168.808C149.603 169.135 149.177 169.436 148.778 169.771M153.889 171.307C154.335 172.067 154.651 172.736 155.1 173.289C155.411 173.699 155.923 173.969 156.556 173.699C156.776 173.611 157.074 173.38 157.225 173.151C157.165 172.857 157.098 172.562 157.03 172.26C156.584 172.312 156.24 172.05 155.956 171.844C155.483 171.505 154.976 171.288 154.274 171.288C154.153 171.288 154.024 171.293 153.889 171.307M149.314 174.905C149.135 175.494 148.888 175.978 148.1 176.146C148.414 176.603 148.893 176.688 149.446 176.625C149.967 176.562 150.33 176.193 150.556 175.788C150.9 175.175 150.938 174.437 150.856 173.801C150.812 173.451 150.743 173.039 150.63 172.81C149.914 173.465 149.551 174.167 149.314 174.905M154.737 175.907C155.351 176.256 156.248 175.852 156.741 174.841C155.923 175.067 155.629 174.553 155.21 174.129C154.841 173.76 154.368 173.518 153.895 173.184C153.65 174.211 154.071 175.538 154.737 175.907M151.302 175.742C151.321 176.298 151.329 176.799 150.759 177.313C151.302 177.473 151.775 177.338 152.243 176.966C152.664 176.642 152.791 176.24 152.769 175.786C152.727 174.996 152.149 174.051 151.406 173.702C151.39 174.448 151.271 175.125 151.302 175.742M153.823 178.067C153.895 178.178 153.985 178.238 154.098 178.249H154.181C154.277 178.241 154.39 178.205 154.522 178.139C154.899 177.949 155.026 177.734 154.968 177.443C154.814 176.62 154.211 176.108 153.548 175.615C153.421 176.551 153.385 177.393 153.823 178.067" fill="url(#paint21_linear_3_17)"/>
<path d="M98.2332 121.87L99.3562 121.229L96.2982 115.897L95.1752 116.538L96.3505 118.595L90.7959 121.785L91.495 123.007L97.0524 119.814L98.2332 121.87ZM103.246 128L97.746 128.872L101.253 124.529L100.163 122.638L93.4879 126.472L94.1843 127.692L99.2929 124.76L99.3122 124.793L95.2825 129.602L95.855 130.598L102.037 129.55L102.056 129.574L96.9533 132.509L97.6524 133.728L104.33 129.896L103.246 128Z" fill="#BCBAB7"/>
<path d="M107.739 285.522C106.209 285.522 105.555 283.482 105.555 277.869C105.555 274.956 106.973 274.228 111.017 274.228C112.078 274.228 112.926 274.236 113.74 274.25C112.45 278.219 110.721 285.522 107.739 285.522ZM99.5404 281.695C99.5404 283.18 99.6824 284.448 99.9404 285.522H78.5577C75.7142 285.522 73.8965 284.864 73.8965 282.241V274.956H80.6314C81.1813 273.318 81.5433 271.82 81.7252 270.223H73.8985C73.9305 267.975 74.0944 265.967 74.2584 263.664C71.7088 264.573 69.7071 265.629 68.0654 267.453V270.223H64.6039C64.314 272.19 64.314 273.68 64.242 274.956H68.0654V282.607C68.0654 287.962 71.3089 290.257 75.7522 290.257H104.824C108.385 290.257 111.121 287.338 113.75 280.731V290.257H119.577V270.223C116.956 270.003 114.55 269.855 111.928 269.855C104.716 269.855 99.5404 272.844 99.5404 281.695ZM130.144 279.473V277.507C130.144 274.956 129.96 272.77 129.598 270.223H123.951C124.133 272.77 124.315 274.956 124.315 277.507V290.257H130.144C130.144 283.115 132.437 274.992 138.52 275.868C138.52 274.592 138.338 271.676 137.976 269.855C133.535 270.241 131.359 274.154 130.144 279.473ZM49.8503 285.522C48.3205 285.522 47.6646 283.482 47.6646 277.869C47.6646 274.956 49.0864 274.228 53.1278 274.228C54.1896 274.228 55.0375 274.236 55.8553 274.25C54.5615 278.219 52.8358 285.522 49.8503 285.522ZM41.6556 281.695C41.6556 287.744 43.8392 290.621 46.7548 290.621C50.3262 290.621 53.1777 287.46 55.8633 280.721V290.257H61.6924V270.223C59.0688 270.003 56.6652 269.855 54.0396 269.855C46.8267 269.855 41.6556 272.844 41.6556 281.695M231.6 272.406C231.6 267.417 228.138 264.391 221.945 264.391C218.522 264.391 216.01 265.119 214.478 265.851C213.604 267.087 213.204 268.511 212.657 270.764C214.988 269.855 217.246 269.129 220.671 269.129C223.403 269.129 225.591 270.295 225.591 273.5C225.591 276.957 223.441 279.473 211.745 286.248C211.745 286.978 211.783 288.434 212.111 290.257H231.416C231.966 288.618 232.327 287.162 232.509 285.522H216.078C224.287 282.715 231.6 279.783 231.6 272.406M27.9277 284.662L27.6278 284.5C24.1323 282.645 19.4311 279.805 19.4311 274.63C19.4311 269.891 22.4946 267.669 26.172 267.669C30.2534 267.669 32.729 270.546 32.729 275.578C32.729 279.041 30.8213 282.097 27.9277 284.662M39.104 290.621L29.5075 285.504C34.9386 283.53 38.922 279.637 38.922 274.118C38.922 266.685 33.3469 262.936 26.172 262.936C19.579 262.936 13.2401 267.161 13.2401 275.322C13.2401 282.207 18.4852 286.322 24.2403 289.346L42.7454 299C42.7454 294.739 42.2375 292.295 39.104 290.621M175.496 288.434C173.861 288.434 168.757 285.118 168.757 276.234C168.757 271.858 171.309 269.129 175.496 269.129C179.686 269.129 182.239 271.858 182.239 276.234C182.239 285.118 177.138 288.434 175.496 288.434M175.496 264.391C168.214 264.391 162.746 268.763 162.746 275.868C162.746 285.156 171.673 290.621 175.496 290.621C179.324 290.621 188.246 285.156 188.246 275.868C188.246 268.763 182.785 264.391 175.496 264.391ZM175.578 274.324C174.305 275.232 173.211 276.294 172.247 277.507C173.211 278.721 174.305 279.779 175.578 280.691C176.852 279.779 177.942 278.721 178.914 277.507C177.942 276.294 176.852 275.232 175.578 274.324ZM209.015 272.406C209.015 267.417 205.552 264.391 199.357 264.391C195.935 264.391 193.422 265.119 191.89 265.851C191.018 267.087 190.616 268.511 190.068 270.764C192.402 269.855 194.661 269.129 198.085 269.129C200.816 269.129 203.004 270.295 203.004 273.5C203.004 276.957 200.854 279.473 189.16 286.248C189.16 286.978 189.196 288.434 189.524 290.257H208.833C209.377 288.618 209.743 287.162 209.925 285.522H193.492C201.702 282.715 209.015 279.783 209.015 272.406M159.831 272.406C159.831 267.417 156.373 264.391 150.18 264.391C146.755 264.391 144.241 265.119 142.714 265.851C141.838 267.087 141.436 268.511 140.892 270.764C143.222 269.855 145.481 269.129 148.907 269.129C151.636 269.129 153.822 270.295 153.822 273.5C153.822 276.957 151.672 279.473 139.98 286.248C139.98 286.978 140.016 288.434 140.346 290.257H159.653C160.201 288.618 160.563 287.162 160.743 285.522H144.311C152.518 282.715 159.831 279.783 159.831 272.406Z" fill="#9A1032"/>
<path d="M209.55 255.81C208.724 256.018 207.817 256.213 206.831 256.399C205.837 256.585 204.611 256.675 203.145 256.675C201.702 256.675 200.24 256.481 198.764 256.09C197.288 255.7 195.958 255.07 194.775 254.202C193.589 253.336 192.617 252.194 191.865 250.782C191.107 249.371 190.733 247.639 190.733 245.597C190.733 243.721 191.045 242.074 191.663 240.662C192.281 239.248 193.145 238.074 194.247 237.131C195.351 236.193 196.662 235.493 198.178 235.029C199.694 234.563 201.34 234.333 203.113 234.333C204.229 234.333 205.311 234.439 206.363 234.657C207.417 234.871 208.468 235.135 209.518 235.445L209.058 240.12C208.129 239.602 207.205 239.22 206.289 238.974C205.367 238.726 204.413 238.602 203.425 238.602C202.391 238.602 201.466 238.776 200.64 239.13C199.814 239.478 199.108 239.964 198.518 240.582C197.928 241.204 197.474 241.942 197.154 242.798C196.834 243.651 196.678 244.585 196.678 245.597C196.678 246.649 196.856 247.599 197.22 248.447C197.578 249.291 198.074 250.006 198.704 250.596C199.334 251.182 200.092 251.632 200.978 251.942C201.866 252.25 202.833 252.406 203.889 252.406C204.837 252.406 205.777 252.298 206.705 252.08C207.635 251.866 208.488 251.602 209.272 251.292L209.55 255.81Z" fill="#9A1032"/>
<path d="M230.288 248.103C230.288 249.591 230.06 250.867 229.606 251.943C229.152 253.014 228.51 253.902 227.674 254.602C226.836 255.306 225.836 255.826 224.671 256.166C223.505 256.51 222.219 256.676 220.815 256.676C219.413 256.676 218.13 256.51 216.962 256.166C215.798 255.826 214.798 255.306 213.96 254.602C213.124 253.902 212.482 253.014 212.029 251.943C211.575 250.867 211.347 249.591 211.347 248.103V234.701H217.104V247.145C217.104 247.867 217.16 248.541 217.274 249.171C217.386 249.803 217.586 250.357 217.862 250.843C218.14 251.327 218.517 251.709 218.991 251.987C219.463 252.266 220.075 252.406 220.815 252.406C221.559 252.406 222.169 252.266 222.645 251.987C223.121 251.709 223.495 251.327 223.775 250.843C224.051 250.357 224.249 249.803 224.363 249.171C224.473 248.541 224.533 247.867 224.533 247.145V234.701H230.288V248.103Z" fill="#9A1032"/>
<path d="M238.925 244.668H240.409C240.904 244.668 241.368 244.62 241.802 244.53C242.234 244.434 242.612 244.27 242.93 244.034C243.25 243.798 243.504 243.486 243.69 243.104C243.874 242.724 243.968 242.255 243.968 241.699C243.968 241.139 243.874 240.675 243.69 240.307C243.504 239.935 243.25 239.635 242.93 239.407C242.612 239.181 242.234 239.019 241.802 238.929C241.368 238.833 240.904 238.787 240.409 238.787H238.925V244.668ZM233.166 234.702H240.037C243.36 234.702 245.806 235.276 247.375 236.419C248.941 237.567 249.727 239.355 249.727 241.791C249.727 243.978 248.973 245.686 247.467 246.912C245.958 248.142 243.854 248.754 241.15 248.754H238.925V256.304H233.166V234.702Z" fill="#9A1032"/>
<path d="M70.6804 234.701H76.5614L79.349 251.293H79.411L82.3165 234.701H89.6214L92.6549 251.293H92.7189L95.5344 234.701H101.138L96.3063 256.306H88.9115L85.848 239.717H85.784L82.9384 256.306H75.4776L70.6804 234.701Z" fill="#9A1032"/>
<path d="M107.296 245.504C107.296 246.394 107.388 247.254 107.576 248.089C107.76 248.923 108.046 249.661 108.44 250.301C108.832 250.941 109.338 251.451 109.959 251.833C110.577 252.215 111.317 252.407 112.187 252.407C113.051 252.407 113.799 252.215 114.417 251.833C115.035 251.451 115.539 250.941 115.928 250.301C116.322 249.661 116.612 248.923 116.798 248.089C116.982 247.254 117.076 246.394 117.076 245.504C117.076 244.578 116.982 243.694 116.798 242.86C116.612 242.024 116.322 241.291 115.928 240.659C115.539 240.033 115.035 239.531 114.417 239.159C113.799 238.787 113.051 238.605 112.187 238.605C111.317 238.605 110.577 238.787 109.959 239.159C109.338 239.531 108.832 240.033 108.44 240.659C108.046 241.291 107.76 242.024 107.576 242.86C107.388 243.694 107.296 244.578 107.296 245.504ZM101.351 245.504C101.351 243.77 101.585 242.212 102.049 240.831C102.511 239.449 103.198 238.277 104.106 237.319C105.014 236.359 106.146 235.619 107.494 235.106C108.846 234.59 110.409 234.33 112.187 234.33C113.959 234.33 115.523 234.59 116.874 235.106C118.226 235.619 119.356 236.359 120.264 237.319C121.172 238.277 121.858 239.449 122.323 240.831C122.787 242.212 123.017 243.77 123.017 245.504C123.017 247.216 122.787 248.763 122.323 250.147C121.858 251.531 121.164 252.707 120.248 253.675C119.33 254.644 118.196 255.388 116.842 255.902C115.495 256.42 113.937 256.678 112.187 256.678C110.409 256.678 108.854 256.42 107.51 255.902C106.174 255.388 105.042 254.644 104.122 253.675C103.204 252.707 102.511 251.531 102.049 250.147C101.585 248.763 101.351 247.216 101.351 245.504Z" fill="#9A1032"/>
<path d="M130.942 243.679H132.456C132.912 243.679 133.392 243.663 133.896 243.631C134.403 243.601 134.857 243.503 135.259 243.339C135.661 243.171 135.997 242.925 136.263 242.595C136.533 242.263 136.665 241.791 136.665 241.169C136.665 240.675 136.549 240.269 136.309 239.949C136.073 239.629 135.765 239.385 135.383 239.221C135.001 239.057 134.557 238.945 134.05 238.881C133.546 238.817 133.016 238.787 132.456 238.787H130.942V243.679ZM125.187 234.702H135.461C136.407 234.702 137.309 234.812 138.153 235.026C138.999 235.244 139.743 235.582 140.383 236.036C141.018 236.49 141.52 237.054 141.882 237.733C142.244 238.417 142.424 239.221 142.424 240.149C142.424 241.593 142.084 242.781 141.4 243.711C140.722 244.636 139.679 245.266 138.277 245.598V245.658C138.731 245.78 139.097 245.976 139.377 246.248C139.655 246.516 139.897 246.85 140.103 247.252C140.311 247.656 140.499 248.12 140.675 248.646C140.852 249.172 141.072 249.766 141.344 250.427L143.446 256.305H137.445L136.203 252.407C135.913 251.477 135.639 250.713 135.383 250.116C135.125 249.52 134.843 249.044 134.547 248.694C134.248 248.34 133.908 248.1 133.524 247.966C133.142 247.83 132.686 247.764 132.15 247.764H130.942V256.305H125.187V234.702Z" fill="#9A1032"/>
<path d="M145.923 234.701H151.678V252.035H160.593V256.306H145.923V234.701Z" fill="#9A1032"/>
<path d="M168.362 252.034H170.59C172.755 252.034 174.417 251.488 175.571 250.392C176.727 249.3 177.307 247.673 177.307 245.503C177.307 243.337 176.715 241.708 175.539 240.614C174.363 239.52 172.715 238.972 170.59 238.972H168.362V252.034ZM162.603 234.701H170.464C172.344 234.701 174.067 234.869 175.633 235.197C177.203 235.527 178.547 236.1 179.674 236.916C180.796 237.73 181.676 238.83 182.304 240.212C182.934 241.592 183.25 243.327 183.25 245.411C183.25 247.435 182.928 249.136 182.288 250.518C181.648 251.902 180.762 253.02 179.626 253.876C178.493 254.732 177.141 255.349 175.571 255.731C174.003 256.113 172.302 256.305 170.464 256.305H162.603V234.701Z" fill="#9A1032"/>
<path fill-rule="evenodd" clip-rule="evenodd" d="M1 234.701V256.306H7.72294V248.503H12.5642L14.2859 243.782H7.72294V239.407H15.8737L17.5894 234.701H1Z" fill="#9A1032"/>
<path fill-rule="evenodd" clip-rule="evenodd" d="M19.6479 256.304H26.3708V234.7H19.6479V256.304Z" fill="#9A1032"/>
<path fill-rule="evenodd" clip-rule="evenodd" d="M30.9977 234.701V256.306H37.7246V248.503H42.5618L44.2836 243.782H37.7246V239.407H45.8713L47.589 234.701H30.9977Z" fill="#9A1032"/>
<path fill-rule="evenodd" clip-rule="evenodd" d="M58.0604 249.252L55.3708 240.253L52.7752 249.252H58.0604ZM66.841 256.306H60.0501L59.1722 253.403H51.5734L50.7316 256.306H44.1126L51.9834 234.702H58.9743L66.841 256.306Z" fill="#9A1032"/>
<defs>
<linearGradient id="paint0_linear_3_17" x1="106.824" y1="117.162" x2="127.112" y2="67.8023" gradientUnits="userSpaceOnUse">
<stop stop-color="#858380"/>
<stop offset="1" stop-color="#A19F9C"/>
</linearGradient>
<linearGradient id="paint1_linear_3_17" x1="117.642" y1="-0.410955" x2="145.119" y2="72.1828" gradientUnits="userSpaceOnUse">
<stop stop-color="#9D9B98"/>
<stop offset="1" stop-color="#797775"/>
</linearGradient>
<linearGradient id="paint2_linear_3_17" x1="145.712" y1="56.5221" x2="65.4689" y2="195.016" gradientUnits="userSpaceOnUse">
<stop stop-color="#797775"/>
<stop offset="0.842522" stop-color="#F2EFEA"/>
<stop offset="1" stop-color="#F2EFEA"/>
</linearGradient>
<linearGradient id="paint3_linear_3_17" x1="109.119" y1="189.512" x2="109.119" y2="29.2762" gradientUnits="userSpaceOnUse">
<stop stop-color="#9D9B98"/>
<stop offset="1" stop-color="#F2EFEA"/>
</linearGradient>
<linearGradient id="paint4_linear_3_17" x1="164.008" y1="126.161" x2="122.217" y2="9.96841" gradientUnits="userSpaceOnUse">
<stop stop-color="#9D9B98"/>
<stop offset="1" stop-color="#F2EFEA"/>
</linearGradient>
<linearGradient id="paint5_linear_3_17" x1="161.342" y1="195.297" x2="97.8354" y2="18.7259" gradientUnits="userSpaceOnUse">
<stop stop-color="#44433E"/>
<stop offset="1" stop-color="#F2EFEA"/>
</linearGradient>
<linearGradient id="paint6_linear_3_17" x1="122.339" y1="25.5369" x2="122.339" y2="104.358" gradientUnits="userSpaceOnUse">
<stop stop-color="#F2EFEA"/>
<stop offset="1" stop-color="#F2EFEA"/>
</linearGradient>
<linearGradient id="paint7_linear_3_17" x1="97.6674" y1="21.8628" x2="123.447" y2="5.16281" gradientUnits="userSpaceOnUse">
<stop stop-color="#FAF6F2"/>
<stop offset="1" stop-color="#FFFBF7"/>
</linearGradient>
<linearGradient id="paint8_linear_3_17" x1="92.6475" y1="8.13066" x2="121.977" y2="8.13066" gradientUnits="userSpaceOnUse">
<stop stop-color="#B0AEAB"/>
<stop offset="1" stop-color="#FAF6F2"/>
</linearGradient>
<linearGradient id="paint9_linear_3_17" x1="167.939" y1="24.9899" x2="127.797" y2="3.21075" gradientUnits="userSpaceOnUse">
<stop stop-color="#FFFBF7"/>
<stop offset="0.527027" stop-color="#FFFBF7"/>
<stop offset="1" stop-color="#B4B2AF"/>
</linearGradient>
<linearGradient id="paint10_linear_3_17" x1="101.032" y1="4.43321" x2="149.971" y2="4.43321" gradientUnits="userSpaceOnUse">
<stop stop-color="#CCC9C6"/>
<stop offset="1" stop-color="#FAF6F2"/>
</linearGradient>
<linearGradient id="paint11_linear_3_17" x1="90.5981" y1="11.7708" x2="85.3588" y2="102.585" gradientUnits="userSpaceOnUse">
<stop stop-color="#FFFBF7"/>
<stop offset="1" stop-color="#FFFBF7"/>
</linearGradient>
<linearGradient id="paint12_linear_3_17" x1="104.36" y1="144.565" x2="157.942" y2="144.565" gradientUnits="userSpaceOnUse">
<stop stop-color="#DAD7D3"/>
<stop offset="1" stop-color="#FAF6F2"/>
</linearGradient>
<linearGradient id="paint13_linear_3_17" x1="103.047" y1="67.9172" x2="101.252" y2="33.9891" gradientUnits="userSpaceOnUse">
<stop stop-color="#BBB8B5"/>
<stop offset="1" stop-color="#FAF6F2"/>
</linearGradient>
<linearGradient id="paint14_linear_3_17" x1="123.209" y1="18.7257" x2="123.209" y2="201.133" gradientUnits="userSpaceOnUse">
<stop stop-color="#DAD7D3"/>
<stop offset="0.512418" stop-color="#FFFBF7"/>
<stop offset="1" stop-color="#EEEBE7"/>
</linearGradient>
<linearGradient id="paint15_linear_3_17" x1="123.209" y1="8.02469" x2="123.209" y2="190.431" gradientUnits="userSpaceOnUse">
<stop stop-color="#DAD7D3"/>
<stop offset="0.512418" stop-color="#FFFBF7"/>
<stop offset="1" stop-color="#EEEBE7"/>
</linearGradient>
<linearGradient id="paint16_linear_3_17" x1="132.357" y1="192.001" x2="106.786" y2="86.8435" gradientUnits="userSpaceOnUse">
<stop stop-color="#FAF6F2"/>
<stop offset="0.512418" stop-color="#FFFBF7"/>
<stop offset="0.677314" stop-color="#FFFBF7"/>
<stop offset="0.90099" stop-color="#EBE7E3"/>
<stop offset="1" stop-color="#CCC9C6"/>
</linearGradient>
<linearGradient id="paint17_linear_3_17" x1="97.7026" y1="25.9629" x2="80.45" y2="55.7394" gradientUnits="userSpaceOnUse">
<stop stop-color="#791426"/>
<stop offset="0.534653" stop-color="#AF1C3B"/>
<stop offset="1" stop-color="#791426"/>
</linearGradient>
<linearGradient id="paint18_linear_3_17" x1="94.4303" y1="24.0666" x2="77.1759" y2="53.8454" gradientUnits="userSpaceOnUse">
<stop stop-color="#791426"/>
<stop offset="0.534653" stop-color="#AF1C3B"/>
<stop offset="1" stop-color="#791426"/>
</linearGradient>
<linearGradient id="paint19_linear_3_17" x1="102.908" y1="28.9791" x2="85.6555" y2="58.7549" gradientUnits="userSpaceOnUse">
<stop stop-color="#791426"/>
<stop offset="0.534653" stop-color="#AF1C3B"/>
<stop offset="1" stop-color="#791426"/>
</linearGradient>
<linearGradient id="paint20_linear_3_17" x1="103.334" y1="266.9" x2="168.434" y2="112.288" gradientUnits="userSpaceOnUse">
<stop stop-color="#791426"/>
<stop offset="0.534653" stop-color="#AF1C3B"/>
<stop offset="1" stop-color="#791426"/>
</linearGradient>
<linearGradient id="paint21_linear_3_17" x1="102.42" y1="78.0949" x2="178.309" y2="247.943" gradientUnits="userSpaceOnUse">
<stop stop-color="#791426"/>
<stop offset="0.534653" stop-color="#AF1C3B"/>
<stop offset="1" stop-color="#791426"/>
</linearGradient>
</defs>
</svg>
